<svg width="160" height="161" viewBox="0 0 160 161" fill="none" xmlns="http://www.w3.org/2000/svg">
<mask id="mask0" mask-type="alpha" maskUnits="userSpaceOnUse" x="0" y="0" width="160" height="161">
<path d="M160 80.7022C160 124.885 124.183 160.702 80 160.702C35.8172 160.702 0 124.885 0 80.7022C0 36.5194 35.8172 0.702148 80 0.702148C124.183 0.702148 160 36.5194 160 80.7022Z" fill="#C4C4C4"/>
</mask>
<g mask="url(#mask0)">
<ellipse cx="78.5" cy="84" rx="95.5" ry="89" fill="#D7EFF6"/>
<path d="M45.2316 167.675H187.78C200.919 145.081 206.447 118.171 203.198 92.2316C202.131 83.5526 199.998 74.7767 195.343 67.3584C190.689 59.9401 183.173 53.9764 174.494 52.7642C163.343 51.2127 152.821 57.5158 142.106 61.1038C126.154 66.4857 108.554 65.9038 92.3597 61.2492C74.6624 56.1582 57.7894 46.2671 39.3649 46.8975C22.6373 47.4308 6.92793 57.1279 -2.96315 70.6554C-12.8542 84.1345 -17.3149 101.104 -17.7513 117.832C-18.1877 134.56 -14.7937 151.19 -10.139 167.287L45.2316 167.675Z" fill="#EAF7FA" fill-opacity="0.6"/>
<path d="M13.3285 51.1157C18.468 47.7702 24.2863 45.2974 30.3955 44.6186C32.4319 44.3762 34.8077 44.1823 35.8744 42.3883C36.7471 40.9337 36.2138 38.9458 35.0501 37.6852C33.8865 36.473 32.1895 35.8427 30.541 35.4548C22.1529 33.37 13.0376 35.5033 5.66781 40.061C2.90412 41.758 0.382869 43.7944 -1.60504 46.3156C-3.54447 48.8854 -4.85358 51.9885 -4.95056 55.1885C-4.99904 56.8855 -4.65964 58.5825 -3.83539 60.0371C-3.1081 61.2492 -1.79899 62.8493 -0.295931 62.2674C1.20713 61.6856 2.71018 59.5522 3.92232 58.4371C6.87995 55.8188 9.98303 53.2976 13.3285 51.1157Z" fill="#D6EDF1"/>
<path d="M186.713 18H110.978V163.651H186.713V18Z" fill="#3B505F"/>
<path d="M182.545 23.7698H115.149V163.651H182.545V23.7698Z" fill="#5B7383"/>
<path opacity="0.5" d="M182.544 144.402H115.148V163.651H182.544V144.402Z" fill="#1F4F57"/>
<path d="M141.136 149.251L182.591 163.651V23.7698L141.136 28.2305V149.251Z" fill="#E6E6E6"/>
<path d="M143.609 45.4428V33.8548L179.246 30.8002V43.8428H179.052L143.609 45.4428ZM143.997 34.2427V45.0065L178.858 43.4549V31.2365L143.997 34.2427Z" fill="#5B7383"/>
<path d="M179.246 157.251L179.004 157.154L143.658 145.517V114.244L179.295 121.905V157.251H179.246ZM143.997 145.275L178.858 156.766V122.244L143.997 114.777V145.275Z" fill="#5B7383"/>
<path d="M159.319 105.953L143.658 103.238V50.7278L159.319 50.3884V105.953ZM143.997 102.947L158.882 105.517V50.7762L143.997 51.1157V102.947Z" fill="#5B7383"/>
<path d="M166.544 115.117L154.471 112.693V108.086L166.544 110.317V115.117ZM154.859 112.402L166.156 114.632V110.656L154.859 108.571V112.402Z" fill="#5B7383"/>
<path d="M183.125 128.159C183.125 128.353 183.077 128.547 183.077 128.741C182.931 130.341 182.592 134.172 180.507 134.511C179.052 134.753 176.87 132.184 175.707 131.359C175.028 130.923 174.349 130.438 173.719 129.953C172.701 129.178 171.731 128.305 171.004 127.238C170.373 126.22 169.985 125.105 169.743 123.941C169.355 122.099 169.307 120.111 168.967 118.268C168.822 117.444 168.579 116.62 168.337 115.844C167.367 112.935 165.767 110.22 163.876 107.698C162.955 106.438 161.937 105.274 160.967 104.062C160.628 103.674 160.24 103.238 159.9 102.801C158.737 101.298 157.719 99.6013 157.913 97.7588C158.155 95.383 160.531 93.5406 162.907 93.3951C165.331 93.2982 167.61 94.6073 169.21 96.4497C169.646 96.9831 170.034 97.5164 170.422 98.0982C171.295 99.5528 171.925 101.201 172.507 102.85C172.895 104.013 173.234 105.177 173.622 106.389C174.01 107.504 174.398 108.62 174.931 109.686C175.464 110.753 176.095 111.82 176.725 112.789C178.083 114.874 179.634 116.814 180.895 118.947C181.38 119.771 181.767 120.596 182.107 121.468C182.931 123.602 183.271 125.881 183.125 128.159Z" fill="#80D4A9"/>
<path opacity="0.19" d="M183.124 128.159C183.124 128.353 183.076 128.547 183.076 128.741C182.93 130.341 182.591 134.172 180.506 134.511C179.052 134.753 176.87 132.184 175.706 131.359C175.027 130.923 174.348 130.438 173.718 129.953C173.961 128.741 174.203 127.432 173.621 126.317C172.894 124.959 171.294 124.474 169.791 123.941C169.403 122.099 169.354 120.111 169.015 118.268C168.87 117.444 168.627 116.62 168.385 115.844C168.821 115.02 169.209 114.195 169.5 113.274C170.033 111.48 169.791 109.25 168.288 108.183C167.173 107.407 165.67 107.407 164.312 107.65C164.166 107.65 164.07 107.698 163.924 107.698C163.003 106.438 161.985 105.274 161.015 104.062C160.676 103.674 160.288 103.238 159.948 102.801C161.791 101.347 163.876 100.183 166.057 99.3103C167.415 98.777 168.821 98.3891 170.227 98.1467C170.276 98.1467 170.373 98.1467 170.421 98.0982C171.294 99.5528 171.924 101.201 172.506 102.85C172.894 104.013 173.233 105.177 173.621 106.389C173.427 106.777 173.282 107.165 173.185 107.601C172.7 109.153 172.845 111.092 174.106 112.062C174.833 112.644 175.755 112.741 176.724 112.838C178.082 114.923 179.633 116.862 180.894 118.996C180.506 119.868 180.021 120.693 179.682 121.614C179.149 122.971 178.955 124.523 179.682 125.735C180.409 126.899 181.864 127.432 183.124 128.159Z" fill="#80D4A9"/>
<path d="M77.6682 37.4912C77.6682 39.673 74.7106 44.1822 73.256 46.3156C72.8681 46.8974 71.9954 46.8974 71.6075 46.3156C70.1045 44.1822 67.1953 39.673 67.1953 37.4912C67.1953 34.582 69.5711 32.2062 72.4803 32.2062C75.2924 32.2062 77.6682 34.582 77.6682 37.4912Z" fill="#D6EDF1"/>
<path d="M74.5659 37.4912C74.5659 38.7034 73.5961 39.6731 72.384 39.6731C71.1719 39.6731 70.2021 38.7034 70.2021 37.4912C70.2021 36.2791 71.1719 35.3094 72.384 35.3094C73.5961 35.3094 74.5659 36.2791 74.5659 37.4912Z" fill="white"/>
<path d="M-0.199567 82.8739C-0.441995 83.5527 -0.635939 84.28 -0.73291 85.0073" stroke="white" stroke-miterlimit="10"/>
<path d="M-1.07324 89.3225C-0.927785 93.5893 0.623756 97.8075 3.14501 101.25C6.9269 106.486 12.7937 110.026 18.9998 111.868C25.206 113.711 31.8001 113.953 38.2487 113.517C47.3155 112.887 56.2853 110.899 65.2552 109.638C74.225 108.377 83.5343 107.699 92.4072 109.735C99.874 111.432 107.05 115.262 111.898 121.081" stroke="white" stroke-miterlimit="10" stroke-dasharray="9.03 9.03"/>
<path d="M113.208 122.826C113.644 123.408 114.032 124.038 114.371 124.669" stroke="white" stroke-miterlimit="10"/>
<path d="M19.8247 75.2131C19.8247 76.2798 18.9519 77.1525 17.8852 77.1525C16.8185 77.1525 15.9458 76.2798 15.9458 75.2131C15.9458 74.1464 16.8185 73.2737 17.8852 73.2737C18.9519 73.2737 19.8247 74.1464 19.8247 75.2131Z" fill="white"/>
<path d="M24.4793 83.6495C24.4793 84.4738 23.8005 85.1526 22.9762 85.1526C22.1519 85.1526 21.4731 84.4738 21.4731 83.6495C21.4731 82.8253 22.1519 82.1465 22.9762 82.1465C23.8005 82.1465 24.4793 82.8253 24.4793 83.6495Z" fill="white"/>
<path d="M99.632 88.7406C99.632 89.1284 99.3411 89.4194 98.9532 89.4194C98.5653 89.4194 98.2744 89.1284 98.2744 88.7406C98.2744 88.3527 98.5653 88.0618 98.9532 88.0618C99.3411 88.1103 99.632 88.4012 99.632 88.7406Z" fill="white"/>
<path d="M0.139522 107.02C0.139522 107.65 -0.345336 108.135 -0.97565 108.135C-1.60596 108.135 -2.09082 107.65 -2.09082 107.02C-2.09082 106.389 -1.60596 105.904 -0.97565 105.904C-0.345336 105.953 0.139522 106.438 0.139522 107.02Z" fill="white"/>
<path d="M78.2985 132.475C78.8608 132.475 79.3167 132.019 79.3167 131.456C79.3167 130.894 78.8608 130.438 78.2985 130.438C77.7361 130.438 77.2803 130.894 77.2803 131.456C77.2803 132.019 77.7361 132.475 78.2985 132.475Z" fill="white"/>
<path d="M103.656 25.8546C104.245 25.8546 104.723 25.3771 104.723 24.7879C104.723 24.1988 104.245 23.7213 103.656 23.7213C103.067 23.7213 102.589 24.1988 102.589 24.7879C102.589 25.3771 103.067 25.8546 103.656 25.8546Z" fill="#D6EDF1"/>
<path d="M25.304 26.6304C25.304 27.0668 24.9646 27.4062 24.5282 27.4062C24.0918 27.4062 23.7524 27.0668 23.7524 26.6304C23.7524 26.194 24.0918 25.8546 24.5282 25.8546C24.9646 25.8546 25.304 26.194 25.304 26.6304Z" fill="#D6EDF1"/>
<path d="M118.251 130.341C118.639 135.384 118.639 139.99 118.445 144.063C117.766 158.075 114.663 166.027 114.663 166.027L109.96 165.93L107.002 123.311L106.663 118.511C107.633 118.414 108.603 118.317 109.572 118.22C113.354 117.881 117.136 117.396 120.869 116.814C119.803 124.523 118.251 130.341 118.251 130.341Z" fill="#F9AF94"/>
<path opacity="0.5" d="M118.251 130.341C118.639 135.383 118.639 139.99 118.445 144.062L117.378 132.814C116.894 127.432 112.384 123.359 107.002 123.359L106.663 118.559C107.633 118.462 108.603 118.365 109.572 118.268C113.354 117.929 117.136 117.444 120.869 116.862C119.803 124.523 118.251 130.341 118.251 130.341Z" fill="#F9AF94"/>
<path d="M115.245 165.833C115.245 165.833 116.166 168.597 115.584 170.148H103.463C103.463 170.148 102.687 167.918 106.081 168.16L109.523 166.027L109.087 158.948C109.087 158.948 111.026 157.59 112.481 159.481L116.699 159.869L115.245 165.833Z" fill="#E6E6E6"/>
<path d="M112.578 159.53C112.578 159.53 111.705 165.348 111.463 166.075C111.22 166.803 109.911 168.694 108.554 168.742C107.148 168.742 106.129 168.209 106.129 168.209L109.572 166.075L109.136 158.996C109.136 158.948 111.123 157.639 112.578 159.53Z" fill="#A9C0C4"/>
<path d="M128.142 115.602C126.251 115.99 124.312 116.329 122.372 116.62C120.093 116.959 117.814 117.299 115.536 117.59C120.578 132.281 127.415 150.124 133.427 162.196C135.318 162.827 136.433 160.984 138.033 160.693C137.742 149.445 133.33 137.905 129.16 127.675C129.015 124.135 128.675 119.965 128.142 115.602Z" fill="#FCC8B1"/>
<path d="M138.954 160.354C138.954 160.354 140.942 162.487 141.088 164.136L130.13 169.227C130.13 169.227 128.482 167.53 131.682 166.318L133.912 162.924L130.518 156.718C130.518 156.718 131.73 154.681 133.815 155.748L137.791 154.293L138.954 160.354Z" fill="#E6E6E6"/>
<path d="M133.863 155.748C133.863 155.748 135.56 161.372 135.608 162.148C135.657 162.924 135.317 165.203 134.057 165.784C132.796 166.415 131.632 166.318 131.632 166.318L133.863 162.924L130.469 156.718C130.517 156.718 131.729 154.681 133.863 155.748Z" fill="#A9C0C4"/>
<path d="M133.718 102.026C132.506 102.414 131.343 102.947 130.131 103.238C127.803 96.5954 125.379 89.4195 122.373 83.3588C121.694 82.0012 121.015 80.6921 120.336 79.4315C119.415 77.686 118.494 76.0375 117.573 74.389C119.561 73.6132 121.5 72.692 123.44 71.7707C124.07 71.4798 124.749 71.1889 125.379 70.898C126.106 72.498 126.737 74.1465 127.367 75.7951C127.852 77.1527 128.337 78.5103 128.773 79.9163C131.003 87.2862 132.458 94.4136 133.718 102.026Z" fill="#FCC8B1"/>
<path d="M131.585 100.038C131.585 100.038 132.458 100.377 133.379 101.25C134.301 102.123 134.398 103.965 134.931 104.741C135.464 105.517 135.949 106.196 135.804 106.39C135.61 106.584 135.319 106.293 134.349 105.129C134.349 105.129 133.767 104.693 134.01 105.371C134.301 106.05 135.319 107.408 134.979 107.747C134.737 108.038 133.379 105.856 133.234 105.808C133.088 105.759 134.301 108.668 133.816 109.056C133.282 109.444 132.749 106.002 132.41 105.953C132.022 105.905 132.701 108.329 132.361 108.474C131.634 108.765 131.391 104.741 131.052 104.838C130.713 104.935 130.47 106.39 130.034 106.341C129.598 106.244 130.179 104.741 130.131 104.45C130.034 104.159 129.404 100.62 131.585 100.038Z" fill="#FCC8B1"/>
<path d="M127.318 75.8435L120.336 79.4315C119.415 77.686 118.494 76.0375 117.573 74.389C119.561 73.6132 121.5 72.692 123.44 71.7707C124.07 71.4798 124.749 71.1889 125.379 70.898C126.058 72.5465 126.688 74.195 127.318 75.8435Z" fill="#49A6AE"/>
<path d="M126.785 72.8374C126.785 72.8374 121.112 76.7163 118.591 76.9102L111.512 63.9645C111.512 63.9645 111.464 63.2372 111.561 62.2675C111.9 58.8735 115.924 57.225 118.543 59.4069L118.64 59.4554C119.173 59.8917 119.852 60.7645 120.579 61.8796C122.518 64.7888 124.943 69.201 126.106 71.4313C126.494 72.3041 126.785 72.8374 126.785 72.8374Z" fill="#67BEC6"/>
<path opacity="0.5" d="M126.785 72.8374C126.785 72.8374 121.112 76.7163 118.591 76.9102L111.512 63.9645C111.512 63.9645 111.464 63.2372 111.561 62.2675C111.9 58.8735 115.924 57.225 118.543 59.4069L118.64 59.4554C119.173 59.8917 119.852 60.7645 120.579 61.8796C120.337 64.6433 120.094 67.3585 119.852 70.1222C119.803 70.7525 119.755 71.4798 120.046 72.0616C120.433 72.7889 121.355 73.1283 122.179 73.1768C123.634 73.2253 125.088 72.595 126.009 71.4798C126.494 72.3041 126.785 72.8374 126.785 72.8374Z" fill="#86D2D9"/>
<path d="M114.421 57.2734V49.1763H109.039V57.6613C107.73 58.1462 106.566 59.0189 105.79 60.2311C105.354 60.9099 104.966 61.4432 104.578 61.9765C105.063 62.219 105.596 62.4129 106.13 62.6069C106.324 62.6069 106.518 62.5584 106.663 62.5584C108.215 62.4129 109.815 62.0735 111.221 61.3947C112.336 60.8614 113.403 60.2311 114.178 59.2614C114.178 59.1644 114.227 59.1159 114.227 59.0189C114.421 58.3886 114.712 57.8553 115.003 57.3219C114.857 57.2734 114.615 57.2734 114.421 57.2734Z" fill="#F9AF94"/>
<path d="M114.324 51.1642C113.84 52.4733 113.258 53.637 112.482 54.3642C111.706 55.14 110.93 55.5764 110.252 55.8188C109.815 55.9643 109.379 56.0612 109.04 56.0612V54.6552C109.427 54.7036 110.106 54.6552 110.834 54.4127C111.512 54.1703 112.288 53.7339 113.112 52.9582C113.597 52.5218 113.985 51.8915 114.324 51.1642Z" fill="#66BBC3"/>
<path d="M130.906 117.687C130.518 117.784 129.888 117.929 128.967 118.123C124.263 119.141 113.306 121.372 107.439 121.662C106.712 121.711 106.081 121.711 105.548 121.662L105.015 82.0981C105.015 82.0981 104.481 78.8496 103.899 75.5041C103.366 72.304 102.784 69.007 102.687 68.3767C102.396 67.1161 102.154 66.3403 104.336 61.9766C106.518 57.6614 109.039 57.5644 109.039 57.5644C107.148 57.9523 105.063 61.3463 105.063 61.3463C105.063 61.3463 109.475 60.1341 111.075 58.4371C112.724 56.7401 114.663 57.0795 114.663 57.0795C116.312 57.3704 117.378 58.3402 118.057 59.3584C118.978 60.7644 119.269 62.5099 118.93 64.1584C118.591 66.0979 118.348 68.6676 118.251 71.0434C118.057 74.9707 118.106 78.5587 118.106 78.5587C124.651 85.0073 123.391 95.1408 123.391 95.1408L130.906 117.687Z" fill="#67BEC6"/>
<path d="M114.033 71.5282C113.743 73.5646 113.5 75.601 113.355 77.6374C113.258 78.6556 113.209 79.6738 113.209 80.692C113.209 80.9344 113.209 81.2253 113.209 81.4678C113.209 81.7102 113.209 81.9526 113.258 82.2435L113.306 82.6314C113.306 82.7769 113.355 82.8739 113.355 83.0193C113.403 83.2617 113.452 83.5042 113.5 83.7466C114.324 87.7709 115.246 91.7467 116.167 95.7226L118.931 107.699L120.288 113.662L121.646 119.674C120.628 115.699 119.609 111.723 118.64 107.747C117.67 103.771 116.749 99.7954 115.827 95.8195L114.47 89.8073C114.033 87.8194 113.597 85.8315 113.209 83.7951C113.161 83.5527 113.112 83.2617 113.112 83.0193C113.112 82.8739 113.064 82.7769 113.064 82.6314L113.015 82.2435C113.015 82.0011 112.967 81.7102 112.967 81.4678C112.967 81.2253 112.967 80.9344 112.967 80.692C112.967 79.6738 113.064 78.6556 113.161 77.6374C113.355 75.601 113.646 73.5646 114.033 71.5282Z" fill="#66BBC3"/>
<path opacity="0.5" d="M116.7 65.0796L112.53 77.9283C108.458 84.9103 106.47 92.8619 106.712 100.911L107.439 121.662C106.712 121.711 106.082 121.711 105.548 121.662L105.015 82.0981C105.015 82.0981 104.482 78.8496 103.9 75.5041L115.003 63.3826L116.7 65.0796Z" fill="#67BEC6"/>
<path opacity="0.5" d="M130.907 117.687C130.519 117.784 129.888 117.929 128.967 118.123L121.597 95.0438C123.197 87.8679 116.7 79.8193 116.7 79.8193L118.349 71.1888C118.155 75.1162 118.203 78.7041 118.203 78.7041C124.749 85.1527 123.488 95.2862 123.488 95.2862L130.907 117.687Z" fill="#67BEC6"/>
<path d="M84.0688 70.2679C82.9536 70.4618 82.4687 70.7042 81.499 71.2861C79.996 68.5709 78.5414 65.9527 77.2808 63.092C78.5899 62.5102 79.899 62.0253 81.2081 61.4435C82.5172 64.4496 83.8748 66.8739 84.0688 70.2679Z" fill="#67B38B"/>
<path d="M81.4502 70.3162C79.9471 68.3283 79.1713 65.904 78.0562 63.6736C78.2501 63.5767 78.2986 63.3827 78.2501 63.1888C79.0259 62.8979 79.8016 62.5585 80.5774 62.2191C80.6744 62.413 80.8683 62.4615 81.0623 62.413C82.1289 64.6918 83.4381 66.8252 83.535 69.3949C83.3411 69.4434 83.2441 69.6374 83.2441 69.8313C82.7108 69.8798 82.3229 70.0737 81.838 70.4131C81.7895 70.2677 81.6441 70.2192 81.4502 70.3162Z" fill="#80D4A9"/>
<path d="M82.5175 65.904C82.8084 66.6313 82.4205 67.3586 81.7417 67.6495C81.0145 67.9404 80.2872 67.698 79.9478 67.0192C79.6569 66.2919 79.9478 65.5161 80.6266 65.2252C81.4023 64.8858 82.2266 65.1767 82.5175 65.904Z" fill="#67B38B"/>
<path d="M81.9838 66.0009C82.0807 65.9524 82.1292 65.9524 82.2262 65.9039C82.2747 65.9524 82.2747 66.0494 82.3232 66.0979C82.2262 66.1464 82.1777 66.1464 82.0807 66.1949C82.1292 66.3888 82.1777 66.5827 82.1292 66.7767C82.0322 66.7767 81.9353 66.7767 81.8383 66.7767C81.8868 66.6312 81.8868 66.4858 81.8383 66.2918C81.7413 66.3403 81.5959 66.3888 81.4989 66.4373C81.4989 66.7282 81.5474 66.9706 81.2565 67.1161C81.014 67.2131 80.7231 67.0676 80.5777 66.8252C80.4807 66.8737 80.4322 66.8737 80.3353 66.9221C80.2868 66.8737 80.2868 66.7767 80.2383 66.7282C80.3353 66.6797 80.3837 66.6797 80.4807 66.6312C80.4322 66.4858 80.3837 66.2918 80.4322 66.1464C80.5292 66.1464 80.6262 66.1464 80.7716 66.1464C80.7716 66.2918 80.7716 66.3888 80.8201 66.5343C80.9656 66.4858 81.0625 66.4373 81.208 66.3888C81.208 66.0979 81.111 65.8555 81.4504 65.71C81.5474 65.613 81.8383 65.7585 81.9838 66.0009ZM81.111 66.6312C81.014 66.6797 80.9171 66.7282 80.8201 66.7767C80.8686 66.8252 80.9656 66.8737 81.0625 66.8737C81.111 66.8252 81.111 66.7282 81.111 66.6312ZM81.4989 66.0494C81.4019 66.0979 81.4019 66.1949 81.4019 66.2433C81.4989 66.1949 81.5959 66.1464 81.6929 66.0979C81.6444 66.0494 81.5474 66.0009 81.4989 66.0494Z" fill="#80D4A9"/>
<path d="M83.9712 70.704C82.8561 70.607 82.3227 70.704 81.256 70.9949C80.5287 67.9888 79.8499 65.0312 79.4136 61.9766C80.8197 61.7826 82.2257 61.6857 83.6318 61.4432C84.0197 64.6918 84.6985 67.407 83.9712 70.704Z" fill="#67B38B"/>
<path d="M81.4512 70.0252C80.5784 67.7464 80.433 65.1767 79.9966 62.7524C80.239 62.7039 80.336 62.5584 80.336 62.316C81.1602 62.219 81.9845 62.1221 82.8572 62.0251C82.9057 62.2675 83.0512 62.3645 83.2936 62.3645C83.73 64.8373 84.4088 67.2615 83.8269 69.7828C83.5845 69.7828 83.4876 69.9283 83.3906 70.1222C82.8572 70.0252 82.4209 70.1222 81.8875 70.3161C81.7905 70.0737 81.6451 69.9767 81.4512 70.0252Z" fill="#80D4A9"/>
<path d="M83.6324 66.0978C83.7294 66.8736 83.1476 67.4554 82.4203 67.5524C81.6445 67.6494 81.0142 67.213 80.8687 66.4372C80.7718 65.6615 81.2566 64.9827 82.0324 64.8857C82.8082 64.7887 83.5355 65.3221 83.6324 66.0978Z" fill="#67B38B"/>
<path d="M83.0992 66.0009C83.1962 66.0009 83.2932 66.0009 83.3902 65.9524C83.3902 66.0494 83.3902 66.0979 83.4386 66.1949C83.3417 66.1949 83.2447 66.1949 83.1962 66.2433C83.1962 66.4373 83.1962 66.6312 83.0508 66.8252C82.9538 66.7767 82.8568 66.7767 82.7598 66.7282C82.8568 66.5827 82.8568 66.4373 82.8568 66.2433C82.7114 66.2433 82.6144 66.2918 82.4689 66.2918C82.4204 66.5827 82.372 66.8252 82.0326 66.8737C81.7416 66.9221 81.5477 66.6797 81.4507 66.4373C81.3538 66.4373 81.2568 66.4373 81.1598 66.4858C81.1598 66.3888 81.1598 66.3403 81.1113 66.2433C81.2083 66.2433 81.3053 66.2433 81.3538 66.1949C81.3538 66.0009 81.3538 65.8555 81.4507 65.71C81.5477 65.7585 81.6447 65.7585 81.7416 65.807C81.6932 65.9524 81.6932 66.0494 81.6932 66.1949C81.8386 66.1949 81.9841 66.1464 82.081 66.1464C82.1295 65.8555 82.1295 65.613 82.4689 65.5161C82.8083 65.5161 83.0508 65.7585 83.0992 66.0009ZM82.081 66.3888C81.9841 66.3888 81.8386 66.4373 81.7416 66.4373C81.7901 66.5343 81.8386 66.5827 81.9356 66.5827C82.0326 66.5827 82.081 66.4858 82.081 66.3888ZM82.6144 65.9039C82.5174 65.9039 82.5174 66.0009 82.4689 66.0979C82.5659 66.0979 82.6629 66.0494 82.8083 66.0494C82.7598 66.0009 82.7114 65.9039 82.6144 65.9039Z" fill="#80D4A9"/>
<path d="M83.7299 71.0433C82.6632 70.6554 82.1298 70.607 81.0146 70.5585C81.1116 67.4554 81.2571 64.4493 81.645 61.3462C83.051 61.5401 84.4571 61.7826 85.8632 61.9765C85.4268 65.2735 85.3299 68.0857 83.7299 71.0433Z" fill="#67B38B"/>
<path d="M81.4986 69.7343C81.2561 67.2616 81.838 64.7888 82.0319 62.316C82.2743 62.316 82.4198 62.2191 82.4683 61.9766C83.2925 62.1221 84.1168 62.2675 84.9411 62.3645C84.9411 62.6069 85.038 62.7524 85.2805 62.8009C85.038 65.3221 85.038 67.8434 83.7774 70.0737C83.5835 70.0252 83.3895 70.1222 83.2925 70.2677C82.7592 70.0252 82.3713 69.9768 81.7895 70.0737C81.7895 69.8798 81.741 69.7343 81.4986 69.7343Z" fill="#80D4A9"/>
<path d="M84.6508 66.5343C84.5538 67.3101 83.8265 67.7464 83.0992 67.601C82.3234 67.504 81.7901 66.8737 81.9356 66.1464C82.0325 65.3706 82.7113 64.8373 83.4871 64.9827C84.2629 65.0797 84.7962 65.7585 84.6508 66.5343Z" fill="#67B38B"/>
<path d="M84.1658 66.3403C84.2628 66.3403 84.3597 66.3888 84.4082 66.3888C84.4082 66.4858 84.4082 66.5342 84.3597 66.6312C84.2628 66.6312 84.1658 66.5827 84.1173 66.5827C84.0688 66.7767 83.9719 66.9706 83.8264 67.1161C83.7294 67.0676 83.6325 67.0191 83.584 66.9706C83.6809 66.8736 83.7779 66.7282 83.8264 66.5342C83.6809 66.5342 83.584 66.4858 83.4385 66.4858C83.293 66.7282 83.2446 66.9706 82.8567 66.9221C82.5658 66.8736 82.4203 66.6312 82.4203 66.3403C82.3233 66.3403 82.2264 66.2918 82.1294 66.2918C82.1294 66.1948 82.1294 66.1464 82.1779 66.0494C82.2749 66.0494 82.3718 66.0979 82.4203 66.0979C82.4688 65.9524 82.5173 65.7585 82.6143 65.6615C82.7112 65.71 82.8082 65.7585 82.9052 65.807C82.8082 65.9039 82.7597 66.0494 82.7112 66.1464C82.8567 66.1464 83.0021 66.1948 83.0991 66.1948C83.2446 65.9524 83.293 65.6615 83.6809 65.71C84.0203 65.7585 84.1658 66.0494 84.1658 66.3403ZM83.0991 66.4373C83.0021 66.4373 82.8567 66.3888 82.7597 66.3888C82.7597 66.4858 82.8082 66.5827 82.9052 66.5827C83.0021 66.5827 83.0506 66.4858 83.0991 66.4373ZM83.7294 66.0979C83.6325 66.0979 83.584 66.1464 83.5355 66.2433C83.6324 66.2433 83.7294 66.2918 83.8749 66.2918C83.8264 66.1948 83.8264 66.0979 83.7294 66.0979Z" fill="#80D4A9"/>
<path d="M112.045 74.5829C111.317 75.6011 110.542 76.6193 109.766 77.589C109.717 77.686 109.62 77.7344 109.572 77.8314C108.796 78.7526 107.487 80.2557 106.275 81.5163C104.869 83.0194 102.687 83.4558 100.844 82.6315C99.6323 82.0982 98.2747 81.4679 97.402 81.0315C95.0262 79.8678 92.7473 78.5102 90.517 77.1041C88.2382 75.698 86.0078 74.2435 83.729 72.8374C83.0502 72.4495 82.129 71.8677 82.129 71.8677C81.4502 71.7222 81.4502 70.9949 81.4502 70.9949C80.9168 70.9465 80.9168 70.4131 80.9168 70.4131C80.1895 70.1707 80.5289 69.4919 80.5289 69.4919C80.5289 69.4919 81.4502 69.8313 81.4502 69.7343C81.4987 69.6373 79.1229 68.1343 79.6562 67.9403C80.238 67.7464 82.7593 69.2495 83.729 69.2979C84.6987 69.3949 84.8442 68.5222 84.8442 68.5222L85.0381 67.7464C85.0381 67.7464 85.426 68.0373 85.5715 68.4252C85.7169 68.7646 85.4745 70.0737 85.4745 70.0737C90.5655 72.0616 95.9474 74.1465 101.135 75.7465C101.814 74.7768 102.396 73.8071 103.026 72.8374C103.851 71.5768 104.626 70.3161 105.402 69.0555C106.081 69.6858 106.808 70.3646 107.487 70.9465C108.99 72.1101 110.493 73.3707 112.045 74.5829Z" fill="#F9AF94"/>
<path d="M112.045 74.5829C111.317 75.6011 110.542 76.6193 109.766 77.589C106.663 76.9102 104.335 74.4374 103.026 72.7889C103.851 71.5283 104.626 70.2676 105.402 69.007C106.081 69.6373 106.808 70.3161 107.487 70.898C108.99 72.1101 110.493 73.3707 112.045 74.5829Z" fill="#49A6AE"/>
<path d="M103.899 70.2676L110.978 59.9402C110.978 59.9402 116.554 57.3705 117.96 63.7221L111.512 75.8435C111.463 75.8435 106.469 74.9223 103.899 70.2676Z" fill="#67BEC6"/>
<path d="M104.239 70.7525C104.094 70.607 103.997 70.4616 103.851 70.2676V70.2191C104.287 69.4918 104.772 68.7646 105.257 68.0858C105.742 67.3585 106.227 66.6797 106.712 66.0009C107.197 65.3221 107.73 64.5948 108.215 63.9645C108.748 63.2857 109.233 62.6069 109.815 61.9766C109.378 62.7038 108.894 63.4311 108.457 64.1584C107.972 64.8857 107.488 65.5645 107.003 66.2918C106.518 66.9706 105.984 67.6979 105.5 68.3767C104.966 69.0555 104.481 69.7343 103.948 70.4131V70.3646C104.045 70.4131 104.142 70.607 104.239 70.7525Z" fill="#49A6AE"/>
<path d="M111.075 75.8434C111.269 75.9404 111.512 76.0374 111.706 76.1344H111.657C112.093 75.1162 112.578 74.1464 113.015 73.1282C113.499 72.1585 113.984 71.1403 114.469 70.1706C114.954 69.2009 115.439 68.2312 115.972 67.2615C116.506 66.2918 116.99 65.322 117.572 64.4008C117.136 65.419 116.7 66.3887 116.215 67.4069C115.778 68.4251 115.293 69.3948 114.809 70.3646C114.324 71.3343 113.839 72.304 113.306 73.2737C112.772 74.2434 112.287 75.2131 111.754 76.1828V76.2313H111.706C111.463 76.0859 111.269 75.9889 111.075 75.8434Z" fill="#49A6AE"/>
<path d="M102.64 48.4491C102.785 47.9642 103.076 47.5279 103.367 47.14C103.561 46.8975 103.706 46.6066 103.852 46.3157C104.046 43.9399 104.627 41.6126 104.967 40.9823C105.5 39.9641 108.312 39.0429 111.076 39.5277C113.84 40.0126 116.119 41.9035 116.264 43.0672C116.313 43.5035 116.506 45.249 115.052 49.5158C114.567 50.8734 113.937 52.1825 113.112 52.9583C112.337 53.734 111.561 54.1704 110.882 54.4128C109.573 54.8977 108.603 54.6068 108.603 54.6068L108.07 54.5098C108.07 54.5098 106.809 54.4128 105.597 53.1522C105.161 52.7158 104.773 52.134 104.385 51.3582C104.143 50.8249 103.997 50.1946 103.9 49.4673C103.512 49.4673 103.124 49.3218 102.834 49.0794C102.64 48.9339 102.591 48.6915 102.64 48.4491Z" fill="#F9AF94"/>
<path d="M113.016 48.3037C113.064 48.1097 113.113 47.9643 113.113 47.7703C113.113 47.5764 113.113 47.4309 113.064 47.2855C112.967 46.9946 112.58 46.9461 112.289 47.14C111.998 47.334 111.755 47.5764 111.61 47.9158C111.464 48.2067 111.416 48.5946 111.416 48.9825C111.367 48.6431 111.319 48.2552 111.416 47.8673C111.561 47.4794 111.804 47.1885 112.143 46.9461C112.337 46.8491 112.531 46.7521 112.773 46.8006C113.016 46.8491 113.21 47.043 113.258 47.237C113.307 47.4309 113.307 47.6249 113.258 47.8188C113.21 47.9643 113.161 48.1582 113.016 48.3037Z" fill="#BF6237"/>
<path d="M112.094 49.031C112.191 48.8855 112.191 48.74 112.24 48.5461C112.24 48.4006 112.288 48.2552 112.24 48.1097C112.24 47.9643 112.191 47.8188 112.143 47.7218C112.046 47.6249 111.949 47.5279 111.755 47.5279C111.9 47.4309 112.143 47.4794 112.288 47.5764C112.434 47.7218 112.482 47.9158 112.531 48.1097C112.531 48.3037 112.531 48.4976 112.434 48.6431C112.385 48.7885 112.24 48.934 112.094 49.031Z" fill="#BF6237"/>
<path d="M106.131 50.3885C106.034 50.5339 105.937 50.6309 105.791 50.6794C105.646 50.7279 105.5 50.7764 105.355 50.7279C105.5 50.6309 105.597 50.5824 105.743 50.5339C105.888 50.4855 105.985 50.437 106.131 50.3885Z" fill="#BF6237"/>
<path d="M106.47 49.2249C106.325 49.6613 105.985 50.0492 105.597 50.2916C105.403 50.3886 105.161 50.4855 104.919 50.534C104.676 50.5825 104.434 50.534 104.24 50.4855C104.676 50.3886 105.112 50.2916 105.452 50.0977C105.84 49.8067 106.179 49.5643 106.47 49.2249Z" fill="#BF6237"/>
<path d="M105.016 49.1765C105.016 49.3224 104.968 49.371 104.919 49.4196C104.87 49.4683 104.773 49.4683 104.676 49.4196C104.676 49.2738 104.724 49.2251 104.773 49.1765C104.822 49.1279 104.919 49.0793 105.016 49.1765Z" fill="#BF6237"/>
<path d="M105.405 47.1404C105.405 47.5283 105.647 47.8192 105.938 47.8192C106.229 47.8192 106.471 47.5283 106.471 47.1404C106.471 46.7525 106.229 46.4616 105.938 46.4616C105.647 46.4616 105.405 46.7525 105.405 47.1404Z" fill="#5E2B13"/>
<path d="M105.21 46.3642C105.21 46.3642 105.307 46.4127 105.355 46.4612C105.404 46.4612 105.452 46.5097 105.549 46.5097C105.694 46.5097 105.791 46.5097 105.937 46.5097C106.034 46.5097 106.179 46.5582 106.179 46.7036C106.179 46.8006 106.131 46.946 105.985 46.946H105.937C105.791 46.8976 105.646 46.8976 105.452 46.8006C105.355 46.7521 105.307 46.7521 105.21 46.6551C105.161 46.6066 105.064 46.5582 105.016 46.4127C105.016 46.3642 105.016 46.3157 105.064 46.3157C105.113 46.3157 105.113 46.3157 105.21 46.3642Z" fill="#5E2B13"/>
<path d="M105.21 45.1036C105.403 45.1036 105.597 45.0551 105.791 45.1036C105.985 45.1036 106.179 45.1036 106.373 45.1521C106.567 45.2005 106.761 45.249 106.955 45.2975C107.149 45.346 107.343 45.443 107.537 45.5399C107.585 45.5884 107.682 45.5399 107.731 45.4915C107.779 45.443 107.731 45.3945 107.682 45.346C107.537 45.2005 107.343 45.0551 107.1 44.9581C106.907 44.8611 106.664 44.7642 106.47 44.7157C106.228 44.6672 105.985 44.6187 105.791 44.6187C105.549 44.6187 105.306 44.6187 105.064 44.7157C104.919 44.7642 104.87 44.9096 104.87 45.0551C104.919 45.0551 105.016 45.1521 105.21 45.1036Z" fill="#5E2B13"/>
<path d="M104.725 44.6689C104.676 44.7659 104.725 44.8629 104.822 44.9599C104.919 45.0568 105.015 45.1053 105.112 45.1053C105.209 45.1053 105.258 45.1053 105.306 45.0083C105.306 44.9114 105.306 44.8629 105.209 44.8144H105.161C105.112 44.8144 105.016 44.8144 104.967 44.8144C104.919 44.8144 104.919 44.7659 104.87 44.7659C104.87 44.7659 104.822 44.7174 104.822 44.6689C104.822 44.6689 104.773 44.6205 104.725 44.6689C104.725 44.6689 104.725 44.6205 104.725 44.6689Z" fill="#5E2B13"/>
<path d="M109.089 53.637C110.401 53.637 111.464 52.5734 111.464 51.2612C111.464 49.9491 110.401 48.8854 109.089 48.8854C107.777 48.8854 106.713 49.9491 106.713 51.2612C106.713 52.5734 107.777 53.637 109.089 53.637Z" fill="#F49F80"/>
<path d="M108.022 54.5098C108.022 54.5098 106.761 54.4129 105.549 53.1522C105.21 52.8128 104.919 52.4249 104.628 51.8916C105.258 54.1704 106.131 56.3523 107.343 58.3887C108.216 57.7584 108.895 57.6614 109.04 57.6614V54.7038C108.749 54.7038 108.555 54.6553 108.555 54.6553L108.022 54.5098Z" fill="#1A223B"/>
<path d="M121.986 57.8069C120.628 56.2068 118.931 54.8008 118.204 52.8613C117.089 49.9522 118.155 46.6067 117.234 43.6006C116.555 41.4187 114.81 39.5762 112.628 38.849C111.222 38.3641 109.719 38.3641 108.264 38.655C106.907 38.9459 105.549 39.5278 104.676 40.6429C103.804 41.8551 103.658 43.4551 103.658 44.9582C103.658 45.4915 103.707 46.0733 103.707 46.6067C103.755 46.5097 103.804 46.4127 103.852 46.3158C103.949 45.346 104.095 44.3763 104.24 43.5521C105.84 44.0369 107.731 43.7945 109.186 42.9702C108.846 43.7945 108.749 44.7157 108.992 45.5885C109.234 46.4612 109.816 47.1885 110.543 47.6734C110.931 47.2855 111.319 46.7521 111.852 46.5097C112.386 46.3158 113.064 46.3158 113.452 46.7521C113.84 47.14 113.84 47.8188 113.598 48.3522C113.355 48.837 112.919 49.2249 112.483 49.5643C112.531 50.2916 112.87 51.0674 113.355 51.6492C113.646 51.9886 113.986 52.2795 114.422 52.5219V57.1766C114.616 57.1766 114.713 57.225 114.713 57.225C116.022 57.4675 116.992 58.0978 117.671 58.922C117.961 59.0675 118.204 59.2129 118.495 59.4554L118.592 59.5039C119.658 60.4251 121.355 63.0433 122.907 65.7585C123.537 65.1282 123.974 64.4009 124.168 63.5282C124.556 61.3948 123.343 59.3584 121.986 57.8069Z" fill="#1A223B"/>
<path d="M70.4444 165.348H62.2018L46.3955 119.093L47.1228 90.0013L57.1108 86.8497L60.4564 106.438L70.4444 165.348Z" fill="#1C2540"/>
<path opacity="0.5" d="M64.3356 165.348H62.2022L46.4443 119.141L47.1716 90.0013L57.1597 86.8497L60.5052 106.486C55.3657 119.19 54.7354 133.251 58.6627 146.39L64.3356 165.348Z" fill="#1C2540"/>
<path d="M39.0258 87.674C39.0258 87.674 37.6197 93.1529 38.6379 97.3711L38.9773 130.487L36.4561 165.3H44.2622L54.7836 97.9045L57.111 86.8497L39.0258 87.674Z" fill="#28365D"/>
<path d="M48.1893 60.3764C49.5954 61.54 51.4863 63.1886 53.3288 63.4795C54.2985 63.6249 55.0258 63.334 55.6076 62.8007C55.6561 62.6552 55.7046 62.5582 55.753 62.4128C55.5106 62.0249 55.2197 61.5885 54.9288 61.1522C54.153 59.8915 53.5227 58.9218 52.5045 58.3885V49.7095H47.365V57.7582C46.8802 57.8066 46.3468 57.8551 45.8135 57.9036C46.4923 58.7764 47.268 59.6006 48.1893 60.3764Z" fill="#FCC8B1"/>
<path d="M52.4561 55.2369V56.6915C52.2621 56.643 52.0682 56.5945 51.8742 56.546C51.1954 56.3036 50.4197 55.8672 49.6439 55.0915C49.3045 54.7521 49.0136 54.3157 48.7227 53.8793C49.4015 54.4612 50.0803 54.849 50.6621 55.043C51.4379 55.2369 52.0682 55.2369 52.4561 55.2369Z" fill="#F49F80"/>
<path d="M57.7895 82.098C57.5471 85.395 57.3532 87.9163 57.3532 87.9163C57.3532 87.9163 55.5107 88.3042 52.747 88.5466C52.6016 88.5466 52.5046 88.5951 52.3591 88.5951C48.6257 88.9345 43.3893 89.0799 38.6377 87.9163L41.1105 77.6373L41.9347 70.2675L43.2438 58.243C43.2438 58.243 45.3772 57.5158 47.3166 57.7097C47.3166 57.7097 51.2925 60.9582 52.4561 60.6673C52.6016 60.6188 52.6985 60.5704 52.7955 60.4734C53.1349 60.0855 52.8925 59.3097 52.6985 58.7764C52.6016 58.534 52.5046 58.34 52.5046 58.34C52.5046 58.34 52.5531 58.34 52.6985 58.3885C52.941 58.437 53.4258 58.6309 53.7167 58.8734C54.1046 59.2612 57.7411 64.4492 58.4199 65.7583C58.8077 66.6311 58.2259 75.8433 57.7895 82.098Z" fill="#EE803A"/>
<path d="M47.1708 57.8552C47.1708 57.8552 46.8799 55.3824 47.1708 55.3824C47.4617 55.3824 51.5345 57.0794 51.8254 57.6612C52.1163 58.2915 52.5527 60.6188 52.5527 60.6188C52.5527 60.6188 51.3406 61.5401 47.1708 57.8552Z" fill="#FF814F"/>
<path d="M52.6015 60.6188L52.4561 57.5642L52.5045 56.643C52.5045 56.643 53.7167 57.0309 54.0076 57.4188C54.2985 57.8067 54.2015 59.5037 54.2015 59.5037C54.2015 59.5037 54.0076 60.5703 52.6015 60.6188Z" fill="#FF814F"/>
<path d="M52.7473 88.5466C52.6018 88.5466 52.5048 88.5951 52.3594 88.5951C53.62 81.7101 52.7957 66.4856 52.4079 60.6673C52.5533 60.6188 52.6503 60.5704 52.7473 60.4734C53.1836 66.1462 54.0564 81.5162 52.7473 88.5466Z" fill="#FF814F"/>
<path opacity="0.5" d="M57.7895 82.0979C57.5471 85.395 57.3532 87.9162 57.3532 87.9162C57.3532 87.9162 55.5107 88.3041 52.747 88.5465C52.6016 88.5465 52.5046 88.595 52.3591 88.595C48.6257 88.9344 43.3893 89.0799 38.6377 87.9162L41.1105 77.6372L41.9347 70.2674C42.9529 69.8795 44.0196 69.6856 45.0863 69.5886C45.2802 73.419 47.2197 77.1524 50.2743 79.4312C52.4076 81.0797 55.0743 82.001 57.7895 82.0979Z" fill="#871A1A"/>
<path d="M78.3962 76.7161V78.4615H52.02L56.2868 77.007L57.2565 76.7161H78.3962Z" fill="#C7762F"/>
<path d="M74.9533 78.463H52.0195V100.33H74.9533V78.463Z" fill="#F5AD49"/>
<path d="M62.6867 96.886H53.0381V98.2436H62.6867V96.886Z" fill="#C7762F"/>
<path d="M59.4872 95.3345H53.0386V96.3042H59.4872V95.3345Z" fill="#C7762F"/>
<path d="M73.1594 81.6131C73.1594 82.5828 72.3837 83.3586 71.4139 83.3586C70.4442 83.3586 69.6685 82.5828 69.6685 81.6131C69.6685 80.6434 70.4442 79.8676 71.4139 79.8676C72.3837 79.8676 73.1594 80.6434 73.1594 81.6131Z" fill="#C7762F"/>
<path opacity="0.5" d="M52.0233 100.319H53.0415V78.4517H52.0233V100.319Z" fill="#F5AD49"/>
<path d="M78.3951 76.7161V98.2923L74.9526 100.329V78.4616L75.8739 77.9767L78.3951 76.7161Z" fill="#E38C3B"/>
<path opacity="0.5" d="M78.3958 94.2679V98.3407L74.9048 100.329V78.4616L75.826 77.9767C75.729 81.3223 75.8745 84.6193 76.2624 87.9163C76.4563 89.4679 76.6988 91.0679 77.3291 92.474C77.62 93.1528 77.9594 93.7346 78.3958 94.2679Z" fill="#E38C3B"/>
<path opacity="0.5" d="M78.3956 76.7161V76.9585C68.456 78.2191 60.068 77.5403 56.2861 77.0555L57.2558 76.7161H78.3956Z" fill="#C7762F"/>
<path d="M55.8013 98.2438C55.8013 98.2438 57.5953 98.3892 57.6922 98.0983C57.7892 97.8559 55.9952 97.2741 55.9952 97.2741L54.4437 96.2559C53.4255 95.0437 52.3588 93.7831 51.2921 92.5225C51.2436 92.5709 51.1467 92.6194 51.0982 92.6679C50.3224 93.3467 49.4497 93.9285 48.5284 94.4619C48.189 94.7528 47.8497 95.0437 47.5103 95.3346C48.8679 96.5468 50.2255 97.7104 51.6315 98.8741C52.1164 99.5529 53.2316 100.91 53.2316 100.91C53.8134 101.056 54.4437 100.959 54.4437 100.959C54.977 101.007 55.7043 100.862 55.7043 100.862C56.2862 100.91 56.6256 100.571 56.6256 100.571C58.0316 100.91 58.8074 100.28 58.8074 100.28H57.7892L55.8013 98.2438Z" fill="#FCC8B1"/>
<path d="M54.3955 94.9953L53.6197 95.6256L50.9045 97.9044L50.2742 98.4377C50.2742 98.4377 35.3406 85.1042 34.7103 82.8253C34.4194 81.8556 34.6133 80.0132 34.9043 78.2192C35.3406 75.4555 36.0194 72.7403 36.9407 70.0736C38.1043 66.6311 40.0922 61.2007 41.4013 59.5037C41.4498 59.4068 41.5468 59.3583 41.5953 59.3098C41.6923 59.2128 41.7407 59.1643 41.8377 59.1158C44.6499 56.5946 49.1106 59.0189 48.7712 62.8008C48.7227 63.5765 48.5287 64.1099 48.5287 64.1099L48.1893 65.225V65.2735L47.3651 67.7948L43.4377 81.1768L54.3955 94.9953Z" fill="#EE803A"/>
<path opacity="0.5" d="M54.3952 94.9952L53.6195 95.6255L41.0132 80.5464L41.9829 79.9161L40.5283 77.5888L42.9526 78.4616L48.0921 65.128L47.2678 67.6492L43.389 80.9828L54.3952 94.9952Z" fill="#871A1A"/>
<path opacity="0.5" d="M50.904 97.9043L50.2737 98.4377C50.2737 98.4377 35.3401 85.1041 34.7098 82.8253C34.4189 81.8556 34.6129 80.0131 34.9038 78.2191C35.3401 75.4555 36.0189 72.7403 36.9402 70.0735C38.1038 66.6311 40.0917 61.2007 41.4009 59.5037C40.0917 63.4795 34.6613 80.5464 35.2432 82.4374C35.825 84.3768 48.5767 95.8194 50.904 97.9043Z" fill="#FF7A46"/>
<path d="M49.5472 88.8375C48.9169 88.1587 48.2865 87.4314 47.6562 86.7041C47.0259 85.9768 46.4441 85.2495 45.8623 84.4738C45.2804 83.7465 44.6986 82.9707 44.1168 82.1949L43.2925 81.0313C43.0016 80.6434 42.7592 80.2555 42.4683 79.8676C42.8077 80.207 43.0986 80.5949 43.438 80.9343L44.3592 82.001C44.9895 82.7283 45.5713 83.4556 46.1532 84.2313C46.735 84.9586 47.3168 85.7344 47.8987 86.5102C48.432 87.2859 49.0138 88.0617 49.5472 88.8375Z" fill="#911B1A"/>
<path d="M48.0931 65.1279C47.8022 66.4855 47.4143 67.7946 47.0749 69.1522C46.7355 70.4614 46.3476 71.819 45.9597 73.1281C45.5718 74.4372 45.184 75.7463 44.7476 77.1039L44.1173 79.0918C43.8749 79.7221 43.6809 80.4009 43.4385 81.0312C43.5839 80.3524 43.7779 79.6736 43.9233 79.0433L44.4567 77.0554C44.7961 75.7463 45.184 74.3887 45.5719 73.0796C45.9597 71.7705 46.3476 70.4614 46.784 69.1038C47.2204 67.7462 47.6082 66.437 48.0931 65.1279Z" fill="#911B1A"/>
<path d="M58.8561 48.9822C58.7106 48.4974 58.4197 48.061 58.1288 47.6731C57.9349 47.4307 57.7894 47.1398 57.6439 46.8489C57.45 44.4731 56.8682 42.1458 56.5288 41.5154C55.9954 40.4972 53.1833 39.576 50.4196 40.0609C47.6559 40.5457 45.3771 42.4367 45.2316 43.6003C45.1831 44.0367 44.9892 45.7822 46.4437 50.0489C46.9286 51.4065 47.5589 52.7156 48.3832 53.4914C49.1589 54.2672 49.9347 54.7035 50.6135 54.946C51.9226 55.4308 52.8923 55.1399 52.8923 55.1399L53.4257 55.0429C53.4257 55.0429 54.6863 54.946 55.8985 53.6853C56.3348 53.249 56.7227 52.6671 57.1106 51.8914C57.353 51.358 57.4985 50.7277 57.5955 50.0004C57.9833 50.0004 58.3712 49.855 58.6621 49.6125C58.8561 49.5156 58.9531 49.2247 58.8561 48.9822Z" fill="#FCC8B1"/>
<path d="M48.48 48.8368C48.383 48.6914 48.286 48.4974 48.2375 48.3035C48.1891 48.1095 48.1891 47.9156 48.2375 47.7216C48.286 47.5277 48.48 47.3338 48.7224 47.2853C48.9648 47.2368 49.1588 47.2853 49.3527 47.4307C49.6921 47.6732 49.9345 47.9641 50.08 48.352C50.2254 48.7398 50.177 49.1277 50.08 49.4671C50.0315 49.0792 50.0315 48.7398 49.886 48.4004C49.7406 48.1095 49.4982 47.8186 49.2072 47.6247C48.9648 47.4307 48.5769 47.4792 48.4315 47.7701C48.383 47.9156 48.383 48.1095 48.383 48.255C48.383 48.4974 48.4315 48.6914 48.48 48.8368Z" fill="#E48855"/>
<path d="M49.4012 49.5641C49.2558 49.4671 49.1103 49.3217 49.0618 49.1762C49.0133 48.9823 48.9648 48.8368 48.9648 48.6429C48.9648 48.4489 49.0618 48.255 49.2073 48.1095C49.3527 47.9641 49.5952 47.9156 49.7406 48.061C49.5467 48.061 49.4497 48.158 49.3527 48.255C49.3042 48.3519 49.2558 48.4974 49.2558 48.6429C49.2558 48.9823 49.2558 49.2732 49.4012 49.5641Z" fill="#E48855"/>
<path d="M55.3652 50.9216C55.5107 50.9701 55.6077 51.0671 55.7531 51.1156C55.8986 51.1641 55.9955 51.2125 56.141 51.3095C55.9955 51.358 55.8501 51.3095 55.7046 51.261C55.6077 51.1641 55.4622 51.0671 55.3652 50.9216Z" fill="#E48855"/>
<path d="M55.0254 49.758C55.3648 50.0974 55.6557 50.3883 56.0436 50.5823C56.2375 50.6792 56.4315 50.7762 56.6254 50.8247C56.8194 50.9217 57.0618 50.9217 57.2557 50.9701C57.0133 51.0186 56.8194 51.0671 56.5769 51.0186C56.3345 51.0186 56.0921 50.9217 55.8981 50.7762C55.7042 50.6792 55.5102 50.5338 55.3648 50.3398C55.2193 50.1944 55.0739 50.0004 55.0254 49.758Z" fill="#E48855"/>
<path d="M56.4805 49.7095C56.529 49.661 56.5774 49.661 56.6259 49.661C56.6744 49.661 56.7229 49.661 56.7229 49.7095C56.7714 49.7095 56.7714 49.758 56.8199 49.8065C56.8199 49.855 56.8684 49.9034 56.8199 49.9519C56.7714 49.9519 56.7229 49.9519 56.6744 49.9519C56.6259 49.9519 56.6259 49.9519 56.5774 49.9034C56.529 49.9034 56.5289 49.855 56.5289 49.8065C56.5289 49.8065 56.4805 49.758 56.4805 49.7095Z" fill="#E48855"/>
<path d="M56.1404 47.7216C56.1404 48.1095 55.898 48.4004 55.6071 48.4004C55.3162 48.4004 55.0737 48.1095 55.0737 47.7216C55.0737 47.3337 55.3162 47.0428 55.6071 47.0428C55.898 46.9943 56.1404 47.3337 56.1404 47.7216Z" fill="#5E2B13"/>
<path d="M56.3348 45.6852C56.1409 45.6852 55.9469 45.6367 55.753 45.6852C55.559 45.6852 55.3651 45.6852 55.1711 45.7337C54.9772 45.7821 54.7833 45.8306 54.5893 45.8791C54.3954 45.9276 54.2014 46.0246 54.0075 46.1215C53.959 46.17 53.862 46.1215 53.8135 46.0731C53.7651 46.0246 53.8135 45.9761 53.862 45.9276C54.0075 45.7821 54.2014 45.6367 54.4438 45.5397C54.6378 45.4427 54.8802 45.3458 55.0742 45.2973C55.3166 45.2488 55.559 45.2003 55.753 45.2003C55.9954 45.2003 56.2378 45.2003 56.4803 45.2973C56.6257 45.3458 56.6742 45.4912 56.6742 45.6367C56.5772 45.5882 56.4803 45.6852 56.3348 45.6852Z" fill="#5E2B13"/>
<path d="M56.7713 45.2003C56.8198 45.2973 56.7713 45.3943 56.6743 45.4912C56.5773 45.5882 56.4804 45.6367 56.3834 45.6367C56.2864 45.6367 56.2379 45.6367 56.1895 45.5397C56.1895 45.4427 56.1895 45.3943 56.2864 45.3458H56.3349C56.3834 45.3458 56.4804 45.3458 56.5289 45.3458C56.5773 45.3458 56.5773 45.2973 56.6258 45.2973C56.6258 45.2973 56.6743 45.2488 56.6743 45.2003C56.7228 45.2003 56.7228 45.2003 56.7713 45.2003Z" fill="#5E2B13"/>
<path d="M54.8322 51.7944C54.8322 53.1035 53.7655 54.1702 52.4564 54.1702C51.1473 54.1702 50.0806 53.1035 50.0806 51.7944C50.0806 50.4853 51.1473 49.4186 52.4564 49.4186C53.7655 49.3701 54.8322 50.4853 54.8322 51.7944Z" fill="#F49F80"/>
<path d="M51.9708 44.1337C52.1648 45.7822 51.6314 47.4307 50.6132 48.6914C50.5163 47.9156 49.9344 47.2368 49.2071 47.0429C48.8677 46.9459 48.4314 46.9459 48.1405 47.1398C47.8011 47.4307 47.7041 47.9641 47.8011 48.4005C47.9465 49.1762 48.4799 49.855 49.2071 50.1944C49.1102 50.6793 48.8193 51.2126 48.5768 51.649C48.3344 52.0854 47.995 52.5217 47.5586 52.7157C46.2495 51.1157 45.4737 49.1277 45.5222 47.0429C45.5707 45.9277 45.2798 44.764 45.7162 43.7458C46.1525 42.7276 46.9283 41.9034 47.8495 41.3215C48.7708 40.7397 49.789 40.3518 50.8557 40.1094C51.1951 40.0124 51.5345 39.9639 51.8739 40.0124C52.2133 40.0124 52.5527 40.1579 52.7951 40.4003C53.086 40.6912 53.2315 41.1761 53.2315 41.6125C53.2315 42.5822 52.7951 43.4549 51.9708 44.1337Z" fill="#5E2B13"/>
<path d="M48.6261 39.6245C48.6261 39.6245 48.1898 39.3336 48.5777 39.0427C48.9655 38.7518 49.6443 38.8003 49.5474 39.2851L48.6261 39.6245Z" fill="#FF814F"/>
<path d="M45.5716 48.0126C45.5716 48.0126 43.3898 43.5034 46.9777 40.5943C50.5657 37.6851 56.287 38.6064 57.3052 42.5822L53.2809 44.8125L45.5716 48.0126Z" fill="#EE803A"/>
<path d="M49.2075 39.3336C49.2075 39.3336 53.4743 41.564 53.1349 44.8125L58.1289 42.7761C58.1289 42.7761 55.947 36.9578 49.2075 39.3336Z" fill="#C42C2B"/>
<path d="M44.9409 45.8307C44.9409 45.8307 45.2318 45.5398 45.6682 45.7337C45.9106 45.8307 46.0561 46.0731 46.1531 46.3156L46.2985 46.8004L45.2803 47.2368C45.2803 47.3338 44.9409 46.461 44.9409 45.8307Z" fill="#5E2B13"/>
<path d="M50.4201 45.9761C50.4201 45.9761 57.6929 43.0185 57.6929 41.9518C57.6929 41.9518 61.1354 40.5457 62.2991 42.0488C63.4627 43.5519 49.4019 46.4125 49.4019 46.4125L50.4201 45.9761Z" fill="#EE803A"/>
</g>
</svg>
