<svg width="160" height="160" viewBox="0 0 160 160" fill="none" xmlns="http://www.w3.org/2000/svg">
<mask id="mask0" mask-type="alpha" maskUnits="userSpaceOnUse" x="0" y="0" width="160" height="160">
<path d="M160 80C160 124.183 124.183 160 80 160C35.8172 160 0 124.183 0 80C0 35.8172 35.8172 0 80 0C124.183 0 160 35.8172 160 80Z" fill="#C4C4C4"/>
</mask>
<g mask="url(#mask0)">
<path d="M-30.1074 -13.7634H209.032V171.183H-30.1074V-13.7634Z" fill="#D7EFF6"/>
<g opacity="0.85">
<path opacity="0.85" d="M164.643 84.4179C162.523 73.433 150.703 66.4763 138.26 68.888C125.817 71.2996 117.442 82.152 119.563 93.1369C120.49 97.947 123.273 101.975 127.142 104.784H155.381C162.298 100.107 166.167 92.3021 164.643 84.4179Z" fill="url(#paint0_linear)"/>
<path opacity="0.85" d="M101.011 55.0143C95.843 41.4058 82.5256 32.7795 66.6771 30.9641C60.2105 26.5119 52.3791 23.9014 43.9381 23.9014C23.2397 23.9014 6.19865 39.5506 4.01221 59.6521C8.13333 41.8695 24.0878 28.6055 43.1297 28.6055C47.6749 28.6055 52.0345 29.3608 56.1159 30.7521C50.3251 31.1761 44.3753 32.4615 38.5051 34.6876C22.7361 40.677 11.0751 52.1389 5.96013 64.9259C-0.095663 66.4365 -3.24945 76.3746 -1.11601 87.4258C1.05719 98.6757 7.90806 106.825 14.1759 105.606C14.5204 105.54 14.8517 105.447 15.1697 105.328C27.7318 116.101 48.1917 119.175 67.7902 111.728C94.2263 101.684 109.094 76.2951 101.011 55.0143Z" fill="url(#paint1_linear)"/>
<path opacity="0.85" d="M79.0005 31.6529C90.4893 35.2703 99.8049 42.6245 104.562 53.1589C113.917 73.8832 102.402 99.762 78.6162 114.205C104.92 100.372 118.516 73.7772 109.16 53.0529C103.966 41.538 92.7155 34.144 79.0005 31.6529Z" fill="url(#paint2_linear)"/>
</g>
<path d="M45.634 104.797C65.7963 104.797 82.141 88.453 82.141 68.2913C82.141 48.1296 65.7963 31.7853 45.634 31.7853C25.4717 31.7853 9.12695 48.1296 9.12695 68.2913C9.12695 88.453 25.4717 104.797 45.634 104.797Z" fill="url(#paint3_linear)"/>
<path d="M42.2151 104.798C62.3773 104.798 78.7221 88.4534 78.7221 68.2918C78.7221 48.1301 62.3773 31.7858 42.2151 31.7858C22.0528 31.7858 5.70801 48.1301 5.70801 68.2918C5.70801 88.4534 22.0528 104.798 42.2151 104.798Z" fill="url(#paint4_linear)"/>
<path d="M42.216 102.969C61.3683 102.969 76.8944 87.4432 76.8944 68.2915C76.8944 49.1397 61.3683 33.6141 42.216 33.6141C23.0636 33.6141 7.5376 49.1397 7.5376 68.2915C7.5376 87.4432 23.0636 102.969 42.216 102.969Z" fill="url(#paint5_linear)"/>
<path d="M76.8938 68.2912C76.8938 87.1339 61.8537 102.478 43.1298 102.955C24.3926 102.478 9.36572 87.1339 9.36572 68.2912C9.36572 49.4486 24.4058 34.1041 43.1298 33.6271C61.8537 34.1041 76.8938 49.4353 76.8938 68.2912Z" fill="white"/>
<path d="M76.8939 68.2911C76.8939 76.8113 73.8197 84.6161 68.7179 90.6584C62.6224 97.3766 53.8236 101.59 44.0442 101.59C26.9634 101.59 12.8907 88.7371 10.9692 72.1736C12.0691 74.572 13.487 76.8644 15.2361 79.0242C25.8238 92.063 44.4418 94.4747 56.8051 84.4306C69.1817 74.3865 70.6261 55.6631 60.0384 42.6375C57.9712 40.0801 55.586 37.9467 53.002 36.2241C59.1373 37.9335 64.5703 41.3522 68.7312 45.9502C73.8197 51.9528 76.8939 59.7576 76.8939 68.2911Z" fill="#C8E9F7"/>
<mask id="mask1" mask-type="alpha" maskUnits="userSpaceOnUse" x="10" y="34" width="40" height="35">
<path d="M44.839 65.1373L49.5432 35.4423C47.7543 35.1375 45.9124 34.9918 44.0307 34.9918C25.6381 34.9918 10.7305 49.8989 10.7305 68.291H44.0307L44.839 65.1373Z" fill="url(#paint6_linear)"/>
</mask>
<g mask="url(#mask1)">
<path d="M44.839 65.1373L49.5432 35.4423C47.7543 35.1375 45.9124 34.9918 44.0307 34.9918C25.6381 34.9918 10.7305 49.8989 10.7305 68.291H44.0307L44.839 65.1373Z" fill="url(#paint7_linear)"/>
<path d="M44.0435 67.7745H18.376V68.808H44.0435V67.7745Z" fill="#30358C"/>
<path d="M47.1724 44.935L43.2471 68.1521L44.8411 68.4216L48.7665 45.2045L47.1724 44.935Z" fill="#30358C"/>
<path d="M16.0573 67.8011H12.0952V68.7551H16.0573V67.8011Z" fill="#30358C"/>
<path d="M20.043 53.8824L16.6118 51.9014L16.1348 52.7276L19.566 54.7086L20.043 53.8824Z" fill="#30358C"/>
<path d="M30.4591 43.804L28.478 40.3729L27.6518 40.85L29.6328 44.281L30.4591 43.804Z" fill="#30358C"/>
<path d="M44.5181 40.2985V36.3365H43.564V40.2985H44.5181Z" fill="#30358C"/>
</g>
<path d="M76.5756 105.977C116.637 105.977 149.113 105.443 149.113 104.784C149.113 104.126 116.637 103.592 76.5756 103.592C36.5145 103.592 4.03857 104.126 4.03857 104.784C4.03857 105.443 36.5145 105.977 76.5756 105.977Z" fill="#367AD1"/>
<path d="M81.4125 90.898C85.2421 90.898 88.0646 94.012 87.6936 97.8414C87.3358 101.671 83.9302 104.785 80.1006 104.785H76.5493L77.8612 90.898H81.4125Z" fill="#333332"/>
<path d="M81.7787 102.633C84.686 99.8596 84.9955 95.4653 82.4699 92.8175C79.9443 90.1698 75.5401 90.2714 72.6328 93.0444C69.7255 95.8174 69.416 100.212 71.9416 102.86C74.4672 105.507 78.8715 105.406 81.7787 102.633Z" fill="#333332"/>
<path d="M80.1324 100.905C81.9965 99.1273 82.1972 96.3123 80.5809 94.6177C78.9645 92.9232 76.143 92.9908 74.279 94.7688C72.4149 96.5467 72.2141 99.3618 73.8305 101.056C75.4469 102.751 78.2683 102.683 80.1324 100.905Z" fill="#575756"/>
<path d="M133.516 90.8979C137.346 90.8979 140.168 94.0118 139.797 97.8413C139.439 101.671 136.034 104.785 132.204 104.785H128.653L129.965 90.8979H133.516Z" fill="#333332"/>
<path d="M133.88 102.63C136.788 99.8574 137.097 95.463 134.571 92.8153C132.046 90.1675 127.642 90.2691 124.734 93.0421C121.827 95.8151 121.518 100.21 124.043 102.857C126.569 105.505 130.973 105.403 133.88 102.63Z" fill="#333332"/>
<path d="M132.234 100.903C134.098 99.1251 134.299 96.31 132.682 94.6155C131.066 92.9209 128.245 92.9886 126.381 94.7665C124.516 96.5445 124.316 99.3595 125.932 101.054C127.548 102.749 130.37 102.681 132.234 100.903Z" fill="#575756"/>
<path d="M122.133 90.898C125.963 90.898 128.785 94.012 128.414 97.8414C128.057 101.671 124.651 104.785 120.821 104.785H117.27L118.582 90.898H122.133Z" fill="#333332"/>
<path d="M70.0297 90.898C73.8593 90.898 76.6818 94.012 76.3108 97.8414C75.953 101.671 72.5474 104.785 68.7178 104.785H65.1665L66.4784 90.898H70.0297Z" fill="#333332"/>
<path d="M145.879 80.5491C145.243 79.7408 144.793 78.8 144.528 77.7929L137.452 49.5025C137.041 47.8461 135.583 46.733 133.821 46.733H96.8499L92.0132 97.8016H144.74C145.826 97.8016 146.794 96.9138 146.9 95.8273L147.933 84.9351C148.026 83.9281 147.748 82.9607 147.165 82.2187L145.879 80.5491Z" fill="url(#paint8_linear)"/>
<path d="M132.244 82.2064L130.945 80.5633C130.309 79.755 129.859 78.8142 129.594 77.8071L122.517 49.5166C122.107 47.8603 120.649 46.7472 118.887 46.7472H60.6211C58.6599 46.7472 56.8842 48.2578 56.553 50.2189L52.3656 74.9317L50.5899 93.6683C50.4574 95.0332 51.4115 96.1727 52.7764 96.2787L74.2698 97.8026H129.819C130.905 97.8026 131.873 96.9148 131.979 95.8282L133.012 84.9361C133.105 83.929 132.827 82.9617 132.244 82.2064Z" fill="url(#paint9_linear)"/>
<path d="M57.5073 96.5959L57.6133 95.5359C58.0506 90.8716 62.185 87.0951 66.8494 87.0951C71.5138 87.0951 74.9326 90.8716 74.4954 95.5359L74.2833 97.7752L57.5073 96.5959Z" fill="#1E2859"/>
<path d="M109.492 97.7883L109.704 95.5489C110.141 90.8846 114.275 87.1081 118.94 87.1081C123.604 87.1081 127.023 90.8846 126.586 95.5489L126.374 97.7883H109.492Z" fill="#1E2859"/>
<path d="M126.586 95.5492L126.374 97.7886H117.933L118.582 90.9115H122.133C123.75 90.9115 125.181 91.468 126.268 92.3823C126.572 93.3629 126.692 94.4229 126.586 95.5492Z" fill="#333332"/>
<path d="M122.488 102.639C125.395 99.8659 125.704 95.4715 123.179 92.8238C120.653 90.1761 116.249 90.2776 113.342 93.0507C110.434 95.8237 110.125 100.218 112.651 102.866C115.176 105.514 119.58 105.412 122.488 102.639Z" fill="#575756"/>
<path d="M120.841 100.911C122.705 99.1328 122.906 96.3178 121.289 94.6232C119.673 92.9287 116.852 92.9963 114.987 94.7742C113.123 96.5522 112.923 99.3672 114.539 101.062C116.155 102.756 118.977 102.689 120.841 100.911Z" fill="#9D9D9C"/>
<path d="M120.013 95.4165C120.066 95.761 120.066 96.132 119.999 96.5163C119.708 98.2654 118.171 99.6965 116.408 99.8423C116.051 99.8688 115.706 99.8555 115.375 99.776C115.097 99.723 114.871 100.054 115.044 100.266C115.64 100.995 116.541 101.446 117.601 101.432C119.589 101.419 121.351 99.7893 121.523 97.8016C121.616 96.7151 121.219 95.7478 120.516 95.0985C120.317 94.9262 119.973 95.125 120.013 95.4165Z" fill="#EDEDED"/>
<path d="M130.071 94.4356H132.111L132.31 92.3685H130.27L130.071 94.4356Z" fill="white"/>
<path d="M112.751 78.9987H108.074L108.193 77.7398H112.871L112.751 78.9987ZM108.325 78.7602H112.526L112.606 77.9651H108.405L108.325 78.7602Z" fill="#30358C"/>
<path d="M126.215 85.558H119.099V85.3195H126.215C126.612 85.3195 126.957 85.0015 126.996 84.6039L127.54 78.8663L127.765 78.8928L127.222 84.6304C127.182 85.1472 126.718 85.558 126.215 85.558Z" fill="#30358C"/>
<path d="M108.935 93.7471H78.9873V93.5086H108.763C109.955 88.9106 114.487 85.3196 119.112 85.3196V85.5582C114.567 85.5582 110.101 89.1226 108.975 93.6676L108.935 93.7471Z" fill="#30358C"/>
<path d="M79.0009 93.7471H75.5953V93.6411C75.317 89.1094 71.5537 85.5582 67.0086 85.5582C63.9475 85.5582 60.3962 87.7578 59.1373 89.7322L59.0976 89.7852H50.9746V89.5466H58.9651C59.6541 88.4998 60.8865 87.453 62.3574 86.6447C63.921 85.7834 65.5774 85.3196 67.0086 85.3196C69.301 85.3196 71.4742 86.1942 73.1306 87.7843C74.7075 89.3081 75.6616 91.3355 75.8206 93.5086H79.0141V93.7471H79.0009Z" fill="#30358C"/>
<path d="M107.756 71.2602L109.399 53.9414C109.465 53.3054 110.022 52.7886 110.658 52.7886H121.1C121.603 52.7886 122.014 53.1198 122.12 53.5969L127.248 77.0376C127.434 77.8724 126.639 78.6807 125.791 78.5084L110.936 75.6197C108.895 75.2222 107.544 73.3936 107.756 71.2602Z" fill="#1E2859"/>
<path d="M74.4821 95.5492L74.2701 97.7886H65.8291L66.4784 90.9115H70.0297C71.6464 90.9115 73.0775 91.468 74.1641 92.3823C74.4689 93.3629 74.5882 94.4229 74.4821 95.5492Z" fill="#3C3C3B"/>
<path d="M70.395 102.631C73.3023 99.8575 73.6117 95.4631 71.0861 92.8154C68.5605 90.1677 64.1563 90.2693 61.249 93.0423C58.3417 95.8153 58.0323 100.21 60.5578 102.857C63.0834 105.505 67.4877 105.404 70.395 102.631Z" fill="#575756"/>
<path d="M68.7491 100.904C70.6132 99.1261 70.8139 96.311 69.1976 94.6165C67.5812 92.9219 64.7597 92.9896 62.8957 94.7675C61.0316 96.5455 60.8308 99.3605 62.4472 101.055C64.0636 102.75 66.885 102.682 68.7491 100.904Z" fill="#9D9D9C"/>
<path d="M67.9092 95.4165C67.9622 95.761 67.9622 96.132 67.8959 96.5163C67.6044 98.2654 66.0673 99.6965 64.3049 99.8423C63.9471 99.8688 63.6025 99.8555 63.2713 99.776C62.993 99.723 62.7677 100.054 62.94 100.266C63.5363 100.995 64.4374 101.446 65.4975 101.432C67.4851 101.419 69.2475 99.7893 69.4198 97.8016C69.5126 96.7151 69.115 95.7478 68.4127 95.0985C68.214 94.9262 67.8694 95.125 67.9092 95.4165Z" fill="#EDEDED"/>
<path d="M143.454 78.5349H131.025L124.584 52.7886H137.014L143.454 78.5349Z" fill="white"/>
<path d="M134.55 94.4356H132.111L132.31 92.3685H134.748L134.55 94.4356Z" fill="#C8E9F7"/>
<path d="M147.046 94.4356H144.607L144.806 92.3685H147.244L147.046 94.4356Z" fill="white"/>
<path d="M147.496 89.6658H145.548C145.269 89.6658 145.071 89.4405 145.097 89.1755L145.375 86.2073C145.428 85.664 145.508 85.1207 145.64 84.5907L146.025 82.9211C146.117 82.5103 146.502 82.2056 146.913 82.2056H147.178C147.774 82.9609 148.039 83.9282 147.946 84.922L147.496 89.6658Z" fill="white"/>
<path d="M108.083 52.7744L104.219 93.6184L104.457 93.6408L108.321 52.7969L108.083 52.7744Z" fill="#30358C"/>
<path d="M138.565 52.6693H55.8906V52.9078H138.565V52.6693Z" fill="#30358C"/>
<path d="M127.385 77.0152L127.152 77.0662L127.554 78.9044L127.787 78.8533L127.385 77.0152Z" fill="#30358C"/>
<path d="M130.813 82.8019L130.906 83.6101C130.972 84.1799 130.985 84.763 130.932 85.3593L130.575 89.1755C130.548 89.4537 130.747 89.6658 131.025 89.6658H132.562L133.013 84.922C133.106 83.9149 132.827 82.9476 132.244 82.2056H131.356C131.038 82.2056 130.773 82.4971 130.813 82.8019Z" fill="white"/>
<path d="M145.058 89.6658H135L135.411 85.399H145.455L145.058 89.6658Z" fill="#1E2859"/>
<path d="M134.788 84.3522L133.847 82.7753C133.635 82.4176 133.251 82.2056 132.814 82.2056H132.23C132.827 82.9609 133.092 83.9282 132.999 84.922L132.549 89.6658H134.496C134.775 89.6658 135.013 89.4405 135.04 89.1755L135.278 86.6578C135.358 85.8363 135.185 85.028 134.788 84.3522Z" fill="#C8E9F7"/>
<path d="M52.4587 73.4203L52.366 74.9441L50.9746 89.679H53.9296L55.3873 74.2418C55.427 73.7913 55.0957 73.4203 54.6452 73.4203H52.4587Z" fill="#E87F79"/>
<path d="M53.108 82.7222H51.6239L50.9746 89.6656H52.4455L53.108 82.7222Z" fill="#FFAFA3"/>
<path d="M54.698 82.7356L54.4727 82.7091L55.281 74.2286C55.2943 74.043 55.2413 73.8708 55.122 73.7383C55.0027 73.6058 54.8305 73.5395 54.6449 73.5395H52.4585V73.301H54.6449C54.8967 73.301 55.122 73.3937 55.2943 73.5793C55.4533 73.7648 55.5328 74.0033 55.5063 74.2551L54.698 82.7356Z" fill="white"/>
<path d="M140.95 78.535H131.025L125.831 57.7444H135.557C136.06 57.7444 136.471 58.0757 136.577 58.5527L140.95 78.535Z" fill="#A0D9F2"/>
<path d="M125.79 78.5216L122.358 77.8591C122.213 77.3556 122.146 76.799 122.199 76.2292L123.67 60.7258L127.248 77.0375C127.434 77.8723 126.638 78.6806 125.79 78.5216Z" fill="url(#paint10_linear)"/>
<path d="M126.016 78.6541C125.936 78.6541 125.857 78.6409 125.777 78.6276L110.923 75.7389L110.963 75.5137L125.817 78.4024C126.175 78.4686 126.559 78.3494 126.824 78.0711C127.089 77.7928 127.209 77.4218 127.129 77.0773L122.001 53.6366C121.908 53.2126 121.537 52.921 121.087 52.921V52.6693C121.643 52.6693 122.107 53.0271 122.226 53.5703L127.354 77.011C127.447 77.435 127.315 77.8856 126.983 78.2168C126.732 78.5084 126.374 78.6541 126.016 78.6541Z" fill="#30358C"/>
<path d="M143.454 78.6542H132.204C131.449 78.6542 130.826 78.1771 130.64 77.4616L124.479 52.8151L124.704 52.7621L130.866 77.4086C131.025 78.0181 131.555 78.4289 132.204 78.4289H143.454V78.6542Z" fill="white"/>
<path d="M122.041 78.8795H123.896C124.174 78.8795 124.412 78.6542 124.439 78.3892L125.062 71.7638C125.088 71.4855 124.89 71.2735 124.611 71.2735H122.756C122.478 71.2735 122.239 71.4988 122.213 71.7638L121.59 78.3892C121.577 78.6542 121.775 78.8795 122.041 78.8795Z" fill="#C8E9F7"/>
<path d="M145.468 85.2797H135.411V85.5182H145.468V85.2797Z" fill="white"/>
<path d="M36.1328 116.021C36.1328 116.498 39.6709 116.882 44.0438 116.882C48.4167 116.882 51.9547 116.498 51.9547 116.021C51.9547 115.544 48.4167 115.16 44.0438 115.16C39.6709 115.16 36.1328 115.544 36.1328 116.021Z" fill="#1E2859"/>
<path d="M38.8629 109.25C37.8293 108.057 37.2065 106.494 37.2065 104.798C37.2065 101.021 40.2676 97.9602 44.0442 97.9602C47.8207 97.9602 50.8818 101.021 50.8818 104.798C50.8818 106.507 50.259 108.057 49.2254 109.25L44.0442 116.021L38.8629 109.25Z" fill="url(#paint11_linear)"/>
<path d="M44.0435 108.72C46.2171 108.72 47.9791 106.958 47.9791 104.784C47.9791 102.611 46.2171 100.849 44.0435 100.849C41.8699 100.849 40.1079 102.611 40.1079 104.784C40.1079 106.958 41.8699 108.72 44.0435 108.72Z" fill="white"/>
<path d="M162.496 117.095C167.956 117.095 172.382 116.614 172.382 116.022C172.382 115.429 167.956 114.948 162.496 114.948C157.037 114.948 152.611 115.429 152.611 116.022C152.611 116.614 157.037 117.095 162.496 117.095Z" fill="#1E2859"/>
<path d="M156.03 107.554C154.744 106.057 153.949 104.109 153.949 101.975C153.949 97.258 157.779 93.4286 162.496 93.4286C167.214 93.4286 171.043 97.258 171.043 101.975C171.043 104.109 170.261 106.057 168.963 107.554L162.496 116.008L156.03 107.554Z" fill="url(#paint12_linear)"/>
<path d="M167.051 103.865C168.093 101.35 166.899 98.4666 164.383 97.4247C161.868 96.3829 158.985 97.5773 157.943 100.092C156.901 102.608 158.095 105.491 160.61 106.533C163.126 107.575 166.009 106.381 167.051 103.865Z" fill="white"/>
<path d="M46.5418 121.737C46.7657 120.357 45.8287 119.057 44.4489 118.833C43.0691 118.609 41.769 119.546 41.5451 120.926C41.3212 122.306 42.2582 123.606 43.638 123.83C45.0178 124.054 46.3178 123.117 46.5418 121.737Z" fill="#FF9B2B"/>
<path d="M165.002 121.742C165.226 120.362 164.289 119.062 162.909 118.838C161.529 118.614 160.229 119.551 160.005 120.931C159.781 122.31 160.718 123.61 162.098 123.834C163.478 124.058 164.778 123.121 165.002 121.742Z" fill="#FF9B2B"/>
<path d="M51.4386 120.766H44.0444V122.157H50.8291L51.4386 120.766Z" fill="#FF9B2B"/>
<path d="M60.3696 120.766H55.904L55.2944 122.157H59.7601L60.3696 120.766Z" fill="#FF9B2B"/>
<path d="M140.553 120.765C140.327 120.765 139.93 120.725 139.744 120.434C139.572 120.169 139.585 119.771 139.784 119.308L142.063 114.1C142.448 113.212 142.434 112.324 141.997 111.662C141.586 111.039 140.884 110.695 140.023 110.695H132.337C130.694 110.695 128.865 111.94 128.176 113.543L122.293 127.006C121.816 128.093 120.49 129.02 119.404 129.02H105.093C104.867 129.02 104.47 128.981 104.284 128.689C104.112 128.424 104.125 128.027 104.324 127.563L108.193 118.698C108.578 117.81 108.564 116.922 108.127 116.26C107.716 115.637 107.014 115.293 106.153 115.293H89.3899C87.7468 115.293 85.9181 116.538 85.2291 118.141L84.964 118.751C84.487 119.838 83.1619 120.765 82.0753 120.765H73.7668L73.1572 122.156H82.0753C83.7184 122.156 85.5471 120.911 86.2361 119.308L86.5012 118.698C86.9782 117.611 88.3033 116.684 89.3899 116.684H106.139C106.365 116.684 106.762 116.724 106.948 117.015C107.12 117.28 107.107 117.678 106.908 118.141L103.039 127.006C102.654 127.894 102.668 128.782 103.105 129.444C103.516 130.067 104.218 130.412 105.079 130.412H119.391C121.034 130.412 122.862 129.166 123.551 127.563L129.422 114.1C129.899 113.013 131.224 112.086 132.311 112.086H139.996C140.221 112.086 140.619 112.126 140.805 112.417C140.977 112.682 140.964 113.08 140.765 113.543L138.486 118.751C138.101 119.639 138.115 120.527 138.552 121.189C138.963 121.812 139.665 122.156 140.526 122.156H162.47V120.765H140.553Z" fill="#FF9B2B"/>
<path d="M69.3013 120.766H64.8356L64.2261 122.157H68.6917L69.3013 120.766Z" fill="#FF9B2B"/>
<path d="M119.311 65.562C118.847 65.2969 117.376 64.7669 116.873 64.6609C115.879 64.4489 114.726 64.3164 113.719 64.3826C113.255 64.4091 112.487 64.4621 112.129 64.8199C111.837 65.1114 111.612 65.6415 111.48 66.0522C111.135 67.1256 111.201 69.8685 111.161 70.8358C111.122 71.7766 110.976 72.3331 110.83 73.0487C110.671 73.7642 110.565 74.228 110.406 74.917C110.34 75.1688 110.353 75.3676 110.446 75.4868C110.605 75.5398 110.777 75.5796 110.949 75.6193L111.864 75.7916C113.494 75.9506 116.899 76.2686 117.443 76.2421C117.602 76.2289 117.88 76.1361 117.946 75.8843C118.052 75.5133 117.893 73.6715 118.065 72.6114C118.238 71.5513 119.443 68.1724 119.655 66.8738C119.775 66.2378 119.788 65.827 119.311 65.562Z" fill="white"/>
<path d="M113.282 73.6983C112.911 73.2743 112.553 71.9624 112.818 70.5711C113.017 69.5508 112.156 68.8087 111.202 69.14C111.188 69.8423 111.188 70.4651 111.175 70.8494C111.135 71.7902 110.99 72.3467 110.844 73.0622C110.685 73.7778 110.579 74.2416 110.42 74.9306C110.354 75.1824 110.367 75.3811 110.46 75.5004C110.619 75.5534 110.791 75.5931 110.963 75.6329L111.877 75.8052C112.182 75.8317 112.54 75.8714 112.924 75.9112C113.07 75.8052 113.189 75.6594 113.295 75.5004C113.852 74.5728 113.666 74.1488 113.282 73.6983Z" fill="#DADADA"/>
<path d="M118.025 59.9175C117.866 59.2417 117.151 58.8177 116.184 58.7515C115.415 58.7117 114.699 59.1357 114.434 59.7188C114.183 60.2753 114.103 61.2029 114.766 62.5942C114.925 62.9255 114.607 63.8795 114.554 64.0385C114.421 64.383 114.355 64.383 114.289 64.5686C114.037 65.2443 115.296 66.3442 116.356 66.3972C117.35 66.4369 117.31 65.2443 117.257 64.9661C117.204 64.7541 117.018 64.7143 116.926 64.6481C116.753 64.5288 116.74 64.4361 116.74 64.224C116.74 64.1843 116.74 64.1313 116.753 64.0783C116.78 63.853 116.806 63.2567 116.952 63.1375C117.071 63.0315 117.138 62.9917 117.27 62.8857C117.389 62.793 117.721 62.4749 117.774 62.2364C117.853 61.9051 117.827 61.3221 117.866 60.9776C117.893 60.5668 118.118 60.3416 118.025 59.9175Z" fill="#FEC1B5"/>
<path d="M115.707 62.3287C115.654 62.2624 115.389 61.8782 115.362 61.9179C115.283 62.0107 115.429 62.5805 115.561 62.819C115.72 63.1237 115.998 63.402 116.409 63.5213C116.555 63.561 116.767 63.5478 116.82 63.5345C116.847 63.3755 116.886 63.2032 116.953 63.137C117.072 63.031 117.138 62.9912 117.271 62.8852C117.31 62.8587 117.363 62.8057 117.39 62.7527C116.926 63.0045 116.197 62.9382 115.707 62.3287Z" fill="#E8988C"/>
<path d="M116.277 58.2741C115.363 58.2078 114.356 58.5921 114.21 59.2016C114.157 59.4269 114.183 59.6654 114.037 59.8112C113.64 60.2352 113.971 61.1363 114.104 61.4675C114.276 61.9313 114.713 62.8854 114.859 62.8191C114.952 62.7794 115.098 62.4613 115.084 62.3156C115.058 62.0108 115.058 61.6928 115.005 61.4013C114.965 61.1893 114.978 61.1893 115.071 61.0038C115.111 61.0833 115.19 61.3085 115.19 61.3085L115.482 61.1628C115.72 60.7785 115.853 60.1955 115.8 59.6257C115.84 59.5462 115.959 59.4667 116.025 59.4402C116.515 59.2414 116.926 58.3138 116.277 58.2741Z" fill="#1E2859"/>
<path d="M115.19 61.1629C115.27 61.4676 115.177 61.7591 114.991 61.8121C114.806 61.8651 114.594 61.6531 114.514 61.3484C114.435 61.0436 114.528 60.7521 114.713 60.6991C114.899 60.6593 115.111 60.8581 115.19 61.1629Z" fill="#FEC1B5"/>
<path d="M113.865 60.9244C113.891 61.0436 113.997 61.2822 114.13 61.1099C114.501 60.6594 114.819 60.3679 115.362 60.0233C115.707 59.7981 116.038 59.6258 116.422 59.5463C116.966 59.4403 117.483 59.4801 117.92 59.6921C117.999 59.7318 118.066 59.6391 118.026 59.5198C117.893 59.0295 117.655 58.6453 117.045 58.2477C116.595 57.9562 115.627 58.0622 115.058 58.2345C113.64 58.685 113.64 59.8643 113.865 60.9244Z" fill="#FF9B2B"/>
<path d="M115.548 59.8778C115.667 59.8116 116.038 59.6393 116.263 59.5333C116.489 59.414 116.674 59.2948 116.886 59.1225C117.072 58.9768 117.217 58.7117 117.522 58.5527C117.708 58.4467 117.814 58.4467 117.867 58.4335C117.893 58.4335 117.854 58.3937 117.708 58.4467C117.39 58.5527 116.899 58.831 116.595 58.937C115.813 59.1888 115.535 59.679 115.495 59.8911C115.468 59.9176 115.495 59.9043 115.548 59.8778Z" fill="#FFB35C"/>
<path d="M115.495 59.8911C115.945 59.6261 116.621 59.4273 117.125 58.8443C117.602 58.2745 118.384 58.301 118.808 58.672C118.993 58.831 119.285 59.2153 119.152 59.5731C119.033 59.8911 118.516 60.0633 118.238 60.1031C118.105 60.1163 118.066 60.1031 118.013 60.0368C117.92 59.9308 117.774 59.7586 117.509 59.6526C117.125 59.4936 116.436 59.5731 116.065 59.7056C115.945 59.7453 115.667 59.8778 115.548 59.9441C115.482 59.9706 115.429 59.9308 115.495 59.8911Z" fill="#E68922"/>
<path d="M117.562 61.958C117.549 62.011 117.364 62.0905 117.138 62.0508C116.913 62.011 116.767 61.8388 116.781 61.799C116.794 61.7593 116.953 61.8388 117.178 61.8785C117.417 61.905 117.562 61.905 117.562 61.958Z" fill="white"/>
<path d="M122.227 71.7636C122.253 71.4853 122.492 71.2733 122.77 71.2733H124.387C123.631 70.306 122.094 68.1461 121.127 67.0993C120.305 66.2115 119.63 65.3105 118.45 65.5225C117.933 65.6152 117.761 66.4898 117.801 67.0463C117.841 67.5234 118.066 68.3317 118.397 68.7159C119.033 69.4712 120.849 71.1806 122.174 72.3599L122.227 71.7636Z" fill="white"/>
<path d="M126.308 72.7176C125.897 72.5586 125.42 72.2671 125.049 71.9623L124.837 74.1752C125.42 74.4005 126.03 74.5462 126.613 74.6125C126.652 74.6125 126.692 74.6257 126.732 74.6257L126.308 72.7176Z" fill="white"/>
<path d="M118.768 77.1566L110.949 75.6327C110.764 75.593 110.592 75.5532 110.419 75.5002C110.472 75.4472 110.539 75.4075 110.605 75.3545C111.082 75.0629 111.745 75.0232 112.182 74.6654C112.593 74.3341 112.897 73.9101 113.017 73.4066C113.268 72.3598 113.52 70.3854 113.626 69.2458C113.706 68.3978 113.772 67.0064 113.374 65.8934C113.176 65.3501 112.712 64.7803 112.553 64.6213C112.447 64.5153 112.447 64.4888 112.54 64.4623C112.672 64.4358 112.924 64.396 113.056 64.3828C113.202 64.3563 113.255 64.4358 113.361 64.5418C113.639 64.8201 114.05 65.4826 114.223 66.1186C114.435 66.9534 114.567 67.9208 114.501 69.0073C115.216 69.0603 116.462 69.1663 117.164 69.2193C117.588 67.5762 117.814 66.0921 117.655 65.0586C117.628 64.8996 117.615 64.8201 117.708 64.8598C117.827 64.8996 118.079 64.9791 118.224 65.0321C118.357 65.0851 118.397 65.2838 118.41 65.3501C118.622 66.1319 118.132 68.5965 117.933 69.5904C117.774 70.4119 117.588 72.2405 117.549 72.9163C117.522 73.5258 117.443 74.1221 117.615 74.7184C117.694 74.9834 117.92 75.3942 118.092 75.5797C118.383 75.8977 118.688 75.9772 118.728 76.3483C118.741 76.4808 118.754 76.7988 118.768 77.1566Z" fill="#FF9B2B"/>
<path d="M108.644 73.9631C108.79 72.5188 109.77 68.4641 110.009 67.3377C110.141 66.7017 110.393 65.4561 111.202 65.0056C111.493 64.8333 112.089 64.6213 112.262 64.5816C112.474 64.5286 112.553 64.6611 112.566 64.6876C112.858 65.0321 113.03 65.4561 113.216 66.0127C113.441 66.6752 113.242 67.8148 113.004 68.7556C112.659 70.1204 112.05 71.9093 111.811 72.7573C111.493 73.8969 112.474 74.0161 112.792 74.0824C113.839 74.2944 118.304 74.9702 118.953 75.1027C119.669 75.2485 119.722 75.6327 119.696 75.964C119.682 76.1495 119.417 76.3483 119.033 76.3483C117.96 76.3483 112.805 76.388 111.149 76.3483C109.823 76.282 108.419 76.2025 108.644 73.9631Z" fill="white"/>
<path d="M121.895 75.2749C121.697 75.1159 121.498 74.9569 121.392 74.8774C121.273 74.7846 121.074 74.6654 120.902 74.6654C120.557 74.6654 120.226 74.6919 120.014 74.7184C119.775 74.7316 119.484 75.0231 119.219 75.1954C118.954 75.3677 118.742 75.7254 118.954 76.0567C119.06 76.229 119.312 76.2952 119.537 76.2555C119.828 76.2025 120.411 76.0567 120.743 75.9507C121.047 75.858 121.246 75.8845 121.524 76.017C121.63 76.07 121.736 76.1097 121.816 76.1362L121.895 75.2749Z" fill="#FEC1B5"/>
<path fill-rule="evenodd" clip-rule="evenodd" d="M66.2038 68.821L62.8297 68.8038L62.8555 63.7477L66.2295 63.7649L66.2265 64.3625L63.5335 64.3488L63.5264 65.7341L65.697 65.7452L65.6939 66.3428L63.5234 66.3318L63.5138 68.2097L66.2068 68.2234L66.2038 68.821ZM71.4165 68.4741C71.1362 68.5994 70.83 68.7082 70.4983 68.8003C70.1664 68.8925 69.8458 68.938 69.5361 68.9364C69.1372 68.9344 68.7715 68.8782 68.4397 68.7678C68.1077 68.6575 67.8255 68.493 67.5927 68.2746C67.3578 68.0537 67.1767 67.7782 67.0501 67.4483C66.9232 67.1182 66.861 66.7326 66.8633 66.2911C66.8674 65.4828 67.1096 64.8464 67.5901 64.3813C68.0706 63.9162 68.7281 63.6858 69.5628 63.6901C69.8541 63.6916 70.1514 63.7277 70.4549 63.7983C70.7583 63.869 71.085 63.9877 71.4349 64.1546L71.4309 64.9527L71.3691 64.9523C71.2983 64.8977 71.1954 64.8258 71.0607 64.7369C70.9258 64.6478 70.7931 64.5736 70.6627 64.5141C70.5048 64.4431 70.3258 64.3839 70.1253 64.3364C69.9249 64.2891 69.6975 64.2645 69.443 64.2632C68.8699 64.2603 68.4154 64.4398 68.0798 64.8015C67.7445 65.163 67.575 65.654 67.5719 66.2742C67.5685 66.9285 67.7403 67.4382 68.087 67.8033C68.4337 68.1685 68.9073 68.3526 69.5082 68.3556C69.7283 68.3568 69.9478 68.3363 70.1671 68.2945C70.3862 68.2526 70.5786 68.1981 70.744 68.1309L70.7517 66.6229L69.173 66.6149L69.1761 66.024L71.429 66.0355L71.4165 68.4741ZM75.8383 68.8701L72.4641 68.8529L72.4899 63.7968L75.8641 63.814L75.8611 64.4116L73.168 64.3979L73.1609 65.7832L75.3313 65.7943L75.3283 66.3919L73.1579 66.3809L73.1483 68.2588L75.8414 68.2725L75.8383 68.8701ZM81.0144 68.8965L80.1305 68.892L78.428 66.8729L77.4682 66.868L77.4579 68.8784L76.777 68.8749L76.8028 63.8188L78.2371 63.8261C78.5466 63.8277 78.8044 63.8488 79.0105 63.8893C79.2168 63.9301 79.4021 64.0017 79.5668 64.1045C79.7519 64.2209 79.8961 64.367 79.9996 64.543C80.103 64.7189 80.1541 64.9418 80.1527 65.2111C80.1508 65.5756 80.0565 65.8801 79.8695 66.1247C79.6824 66.3694 79.4258 66.5532 79.0997 66.676L81.0144 68.8965ZM79.4408 65.2548C79.4416 65.11 79.4165 64.9813 79.3654 64.869C79.3144 64.7567 79.2294 64.6617 79.1107 64.5842C79.0124 64.518 78.8957 64.4717 78.7605 64.4448C78.6253 64.4182 78.4661 64.4044 78.2827 64.4035L77.4812 64.3994L77.4714 66.3077L78.1595 66.3112C78.3749 66.3123 78.5631 66.2946 78.7237 66.258C78.8845 66.2215 79.0213 66.1527 79.1341 66.0512C79.2378 65.9567 79.3147 65.8479 79.3645 65.7248C79.4145 65.6017 79.4399 65.4451 79.4408 65.2548ZM85.2633 67.4749C85.2623 67.6719 85.2148 67.8663 85.1209 68.0583C85.0271 68.2502 84.896 68.4125 84.728 68.5452C84.5438 68.6892 84.3295 68.8012 84.0848 68.8813C83.8403 68.9617 83.546 69.001 83.2021 68.9993C82.8328 68.9974 82.501 68.9616 82.2069 68.8923C81.9125 68.8229 81.6132 68.7207 81.309 68.5854L81.3132 67.7433L81.3614 67.7436C81.6194 67.9577 81.9177 68.1233 82.2566 68.2406C82.5954 68.3577 82.9137 68.4172 83.2117 68.4187C83.6337 68.4209 83.9626 68.3444 84.1984 68.1892C84.4344 68.0343 84.5528 67.8267 84.5542 67.5663C84.5553 67.3422 84.5004 67.1767 84.3899 67.0697C84.2793 66.9627 84.1104 66.8793 83.8839 66.8193C83.7121 66.773 83.526 66.7348 83.3255 66.7042C83.1249 66.6738 82.9125 66.6355 82.6881 66.5891C82.2345 66.4915 81.8988 66.3276 81.6809 66.0966C81.4632 65.8657 81.3552 65.5658 81.3571 65.1967C81.3592 64.7734 81.5422 64.4275 81.9058 64.1588C82.2694 63.8901 82.73 63.7572 83.2872 63.76C83.6471 63.7618 83.977 63.7975 84.2772 63.8668C84.5773 63.9365 84.8428 64.0216 85.0739 64.1223L85.0699 64.9168L85.0217 64.9165C84.8276 64.7526 84.5721 64.6161 84.2549 64.5068C83.9379 64.3978 83.6133 64.3425 83.2809 64.3408C82.9161 64.3389 82.6229 64.412 82.4009 64.5602C82.1789 64.7085 82.0671 64.9004 82.0659 65.1358C82.0649 65.3464 82.119 65.5119 82.2285 65.6324C82.338 65.753 82.5313 65.8457 82.8084 65.9105C82.9549 65.943 83.1636 65.9824 83.4337 66.0292C83.704 66.0758 83.9331 66.1234 84.121 66.1718C84.501 66.2735 84.787 66.4255 84.9786 66.6278C85.1701 66.8304 85.2651 67.1127 85.2633 67.4749ZM90.0747 66.9119C90.0729 67.2787 90.0306 67.5983 89.9478 67.8707C89.865 68.1431 89.7303 68.3693 89.5436 68.5494C89.3662 68.7206 89.1591 68.8453 88.9226 68.9233C88.686 69.0012 88.4105 69.0396 88.0964 69.038C87.7754 69.0363 87.496 68.9929 87.258 68.9079C87.0197 68.823 86.8199 68.6985 86.6579 68.5347C86.473 68.3481 86.3405 68.1235 86.2605 67.8604C86.1805 67.5974 86.1414 67.2746 86.1433 66.8919L86.1587 63.8665L86.8398 63.8699L86.8242 66.9295C86.8228 67.2033 86.8407 67.4195 86.8778 67.5783C86.9147 67.737 86.9776 67.881 87.0663 68.0105C87.1665 68.1581 87.3029 68.2698 87.4758 68.3453C87.6485 68.4209 87.8564 68.4593 88.0994 68.4605C88.3446 68.4618 88.5536 68.4261 88.726 68.3533C88.8983 68.2808 89.0365 68.1699 89.1404 68.0211C89.2305 67.8925 89.2948 67.7452 89.3336 67.5789C89.3722 67.4127 89.3921 67.2063 89.3934 66.9594L89.4091 63.883L90.0902 63.8865L90.0747 66.9119ZM95.1309 68.9685L94.288 68.9642L91.8829 64.4288L91.8598 68.9518L91.2235 68.9486L91.2493 63.8924L92.3052 63.8978L94.4992 68.0381L94.5202 63.9091L95.1567 63.9123L95.1309 68.9685ZM100.692 66.4738C100.689 66.9333 100.586 67.3493 100.381 67.7217C100.176 68.0943 99.9047 68.3826 99.5666 68.587C99.332 68.7285 99.0704 68.8301 98.7825 68.892C98.4943 68.9539 98.1152 68.9837 97.6453 68.9813L96.3519 68.9747L96.3777 63.9185L97.6573 63.925C98.1571 63.9276 98.5543 63.9653 98.8484 64.0381C99.1428 64.1109 99.3916 64.2102 99.5951 64.3356C99.9425 64.5524 100.213 64.8402 100.406 65.1988C100.599 65.5575 100.694 65.9825 100.692 66.4738ZM99.9796 66.4597C99.9816 66.0636 99.9135 65.7292 99.7751 65.4568C99.6364 65.1845 99.4289 64.9695 99.1523 64.8119C98.9511 64.6977 98.737 64.618 98.5104 64.5727C98.2835 64.5274 98.0119 64.504 97.6954 64.5024L97.0557 64.4991L97.0358 68.4007L97.6755 68.404C98.0033 68.4056 98.2897 68.3833 98.5341 68.3369C98.7785 68.2908 99.0032 68.2036 99.2079 68.0756C99.4632 67.9162 99.6552 67.7054 99.7838 67.4436C99.9123 67.1816 99.9776 66.8536 99.9796 66.4597ZM71.9253 73.9432C71.9243 74.1401 71.877 74.3344 71.783 74.5263C71.6892 74.7183 71.5582 74.8806 71.3902 75.0133C71.2059 75.1573 70.9916 75.2694 70.747 75.3496C70.5024 75.4299 70.2081 75.4692 69.8641 75.4674C69.4948 75.4656 69.1632 75.4299 68.869 75.3606C68.5745 75.291 68.2752 75.1889 67.971 75.0537L67.9753 74.2115L68.0234 74.2118C68.2814 74.4259 68.5798 74.5916 68.9186 74.7088C69.2573 74.8259 69.5757 74.8853 69.8739 74.8868C70.2958 74.889 70.6248 74.8125 70.8605 74.6575C71.0965 74.5024 71.2149 74.2949 71.2162 74.0345C71.2174 73.8103 71.1626 73.645 71.052 73.538C70.9413 73.4309 70.7727 73.3475 70.5461 73.2875C70.3742 73.2413 70.1881 73.203 69.9877 73.1724C69.787 73.1421 69.5746 73.1036 69.3501 73.0572C68.8966 72.9598 68.5609 72.7958 68.3431 72.5649C68.1253 72.334 68.0174 72.034 68.0193 71.665C68.0214 71.2416 68.2042 70.8956 68.5679 70.6269C68.9315 70.3583 69.3921 70.2253 69.9493 70.2282C70.3091 70.23 70.6393 70.2656 70.9393 70.335C71.2394 70.4046 71.5048 70.4897 71.736 70.5905L71.732 71.3851L71.6838 71.3849C71.4896 71.2209 71.2342 71.0842 70.9171 70.9752C70.6 70.8659 70.2753 70.8106 69.9428 70.8089C69.5783 70.807 69.2848 70.8802 69.0629 71.0284C68.8409 71.1767 68.7292 71.3686 68.728 71.604C68.7269 71.8145 68.7812 71.98 68.8907 72.1006C69 72.2212 69.1933 72.314 69.4705 72.3786C69.6171 72.4111 69.8256 72.4506 70.0959 72.4974C70.3662 72.544 70.5952 72.5915 70.7831 72.64C71.1632 72.7416 71.4491 72.8935 71.6407 73.0959C71.8323 73.2986 71.9271 73.5809 71.9253 73.9432ZM75.963 75.4066L72.5889 75.3894L72.6147 70.3332L75.9887 70.3504L75.9857 70.948L73.2927 70.9343L73.2856 72.3198L75.456 72.3309L75.453 72.9285L73.2826 72.9174L73.273 74.7952L75.966 74.809L75.963 75.4066ZM81.0811 75.4326L80.3553 75.4289L79.8603 74.0172L77.6453 74.0059L77.136 75.4125L76.4447 75.409L78.3346 70.3623L79.2427 70.367L81.0811 75.4326ZM79.6534 73.4389L78.7682 70.9522L77.8545 73.4297L79.6534 73.4389ZM84.8703 70.9932L82.2805 70.9801L82.2732 72.4064L84.2563 72.4165L84.2533 73.0141L82.2701 73.004L82.2577 75.4386L81.5765 75.4352L81.6022 70.379L84.8733 70.3957L84.8703 70.9932ZM89.3246 70.9993C89.5321 71.2267 89.6906 71.5049 89.8002 71.8337C89.9097 72.1625 89.9634 72.5353 89.9612 72.9516C89.9591 73.3682 89.9005 73.741 89.7854 74.0698C89.6702 74.3985 89.5099 74.6723 89.3048 74.8908C89.0927 75.1184 88.8422 75.2891 88.5541 75.4031C88.2656 75.517 87.937 75.5731 87.5677 75.5712C87.2077 75.5694 86.8807 75.5087 86.5868 75.3895C86.2926 75.2705 86.043 75.0982 85.8377 74.8731C85.6325 74.6479 85.4751 74.3721 85.3658 74.0455C85.2559 73.719 85.2024 73.3463 85.2045 72.9274C85.2066 72.5155 85.2635 72.1463 85.3753 71.8195C85.487 71.4931 85.6489 71.2139 85.861 70.9816C86.0638 70.7609 86.3154 70.5924 86.6152 70.4761C86.9149 70.3601 87.2416 70.3028 87.5946 70.3046C87.9614 70.3065 88.2908 70.3675 88.5825 70.4879C88.8743 70.6082 89.1217 70.7787 89.3246 70.9993ZM89.2527 72.9478C89.256 72.2913 89.1096 71.7841 88.8132 71.4261C88.5169 71.068 88.1109 70.8877 87.5949 70.8851C87.0745 70.8824 86.6648 71.0586 86.3661 71.4136C86.0672 71.7686 85.9162 72.2743 85.9128 72.9308C85.9094 73.5941 86.0583 74.1026 86.3591 74.4562C86.66 74.8097 87.065 74.9879 87.574 74.9905C88.083 74.9931 88.4893 74.819 88.7926 74.4686C89.0959 74.1181 89.2493 73.6111 89.2527 72.9478ZM94.7281 71.0267C94.9356 71.2543 95.0941 71.5323 95.2038 71.8612C95.3132 72.19 95.367 72.5628 95.3649 72.9791C95.3627 73.3957 95.3042 73.7684 95.189 74.0973C95.0736 74.426 94.9136 74.6998 94.7083 74.9182C94.4963 75.1459 94.2459 75.3166 93.9576 75.4306C93.6693 75.5446 93.3404 75.6007 92.9714 75.5988C92.6112 75.5969 92.2843 75.5363 91.9902 75.4171C91.6962 75.2979 91.4465 75.1258 91.2414 74.9006C91.0361 74.6755 90.8788 74.3996 90.7691 74.0729C90.6595 73.7464 90.6059 73.3737 90.608 72.9549C90.6101 72.5431 90.6671 72.1738 90.7787 71.8471C90.8905 71.5206 91.0523 71.2413 91.2646 71.0091C91.4675 70.7883 91.7189 70.6199 92.0187 70.5035C92.3186 70.3875 92.645 70.3303 92.9983 70.3321C93.3649 70.334 93.6943 70.395 93.9861 70.5155C94.2779 70.6357 94.5252 70.8062 94.7281 71.0267ZM94.6563 72.9753C94.6597 72.3189 94.5133 71.8116 94.2168 71.4536C93.9207 71.0955 93.5145 70.9152 92.9986 70.9126C92.4781 70.91 92.0685 71.0861 91.7697 71.4411C91.4711 71.7961 91.32 72.3018 91.3167 72.9583C91.3133 73.6216 91.4619 74.1301 91.7627 74.4838C92.0636 74.8372 92.4686 75.0154 92.9777 75.0179C93.4868 75.0205 93.8929 74.8465 94.1963 74.4962C94.4995 74.1456 94.6529 73.6387 94.6563 72.9753ZM100.631 73.0092C100.628 73.4689 100.525 73.8846 100.32 74.2573C100.115 74.6297 99.8436 74.9182 99.5055 75.1222C99.2709 75.2638 99.0095 75.3655 98.7214 75.4274C98.4334 75.4894 98.0544 75.519 97.5842 75.5166L96.2909 75.5101L96.3167 70.454L97.5962 70.4605C98.0961 70.463 98.4932 70.5008 98.7875 70.5736C99.0817 70.6463 99.3307 70.7456 99.5341 70.8712C99.8815 71.0879 100.152 71.3756 100.345 71.7344C100.538 72.093 100.633 72.518 100.631 73.0092ZM99.919 72.9957C99.9211 72.5995 99.8528 72.2652 99.7143 71.9928C99.5757 71.7204 99.3683 71.5053 99.0917 71.3479C98.8903 71.2337 98.6764 71.1538 98.4497 71.1085C98.2229 71.0632 97.9512 71.0398 97.6348 71.0382L96.995 71.0349L96.9751 74.9365L97.615 74.9398C97.9428 74.9414 98.2291 74.9192 98.4735 74.8729C98.7178 74.8266 98.9425 74.7394 99.1473 74.6114C99.4025 74.4518 99.5945 74.2412 99.7233 73.9795C99.8517 73.7174 99.917 73.3895 99.919 72.9957ZM65.9635 72.8156C65.3673 72.8126 65.1228 72.4221 64.2558 72.4177C63.3887 72.4133 62.8445 72.9019 62.8445 72.9019C62.8445 72.9019 63.3837 73.3958 64.2507 73.4002C65.1177 73.4046 65.3663 73.0167 65.9624 73.0197C66.5583 73.0228 67.0392 73.4386 67.0392 73.4386L67.0445 72.4076C67.0445 72.4076 66.5594 72.8187 65.9635 72.8156ZM62.8523 71.3549L62.8471 72.386C62.8471 72.386 63.3318 71.9751 63.928 71.9782C64.524 71.9812 64.7686 72.3715 65.6354 72.376C66.5026 72.3804 67.0471 71.8919 67.0471 71.8919C67.0471 71.8919 66.5076 71.3979 65.6404 71.3935C64.7736 71.3891 64.5251 71.777 63.929 71.7739C63.3329 71.7709 62.8523 71.3549 62.8523 71.3549ZM65.974 70.7533C65.3778 70.7503 65.1333 70.3598 64.2663 70.3554C63.3993 70.351 62.855 70.8395 62.855 70.8395C62.855 70.8395 63.3943 71.3335 64.2613 71.3379C65.1283 71.3423 65.3768 70.9544 65.973 70.9574C66.5688 70.9605 67.0497 71.3763 67.0497 71.3763L67.055 70.3453C67.055 70.3453 66.5699 70.7564 65.974 70.7533ZM63.3157 74.2602L63.2173 74.2597L63.0279 74.0352L62.9212 74.0347L62.92 74.2582L62.8443 74.2578L62.8472 73.6952L63.0066 73.696C63.0411 73.6962 63.0698 73.6985 63.0927 73.7031C63.1156 73.7076 63.1364 73.7157 63.1547 73.7271C63.1752 73.74 63.1914 73.7563 63.2028 73.7759C63.2143 73.7955 63.22 73.8202 63.2199 73.8502C63.2197 73.8908 63.2091 73.9246 63.1882 73.9518C63.1675 73.9791 63.1389 73.9996 63.1028 74.0132L63.3157 74.2603L63.3157 74.2602ZM63.1405 73.8552C63.1406 73.8391 63.1379 73.8249 63.1321 73.8124C63.1264 73.7998 63.117 73.7893 63.1039 73.7807C63.0928 73.7734 63.0798 73.7682 63.0648 73.7652C63.0498 73.7622 63.032 73.7606 63.0117 73.7605L62.9225 73.7601L62.9214 73.9724L62.998 73.9728C63.022 73.9729 63.0429 73.9711 63.0609 73.9669C63.0787 73.9628 63.0939 73.9552 63.1063 73.944C63.118 73.9336 63.1264 73.9214 63.1321 73.9077C63.1376 73.8939 63.1404 73.8765 63.1405 73.8553L63.1405 73.8552ZM63.8008 73.7647C63.8237 73.7901 63.8416 73.821 63.8536 73.8577C63.866 73.8941 63.8718 73.9356 63.8715 73.9819C63.8713 74.0283 63.8648 74.0698 63.8521 74.1063C63.8393 74.1429 63.8213 74.1734 63.7986 74.1977C63.7749 74.223 63.7471 74.242 63.715 74.2546C63.6829 74.2673 63.6463 74.2736 63.6053 74.2734C63.5652 74.2732 63.5288 74.2664 63.4961 74.2532C63.4633 74.2399 63.4357 74.2208 63.4129 74.1957C63.3899 74.1707 63.3724 74.1401 63.3602 74.1038C63.3482 74.0673 63.342 74.0259 63.3423 73.9792C63.3425 73.9334 63.349 73.8923 63.3614 73.8561C63.3738 73.8196 63.3919 73.7887 63.4154 73.7628C63.438 73.7382 63.466 73.7195 63.4993 73.7065C63.5326 73.6936 63.5689 73.6873 63.6082 73.6875C63.6492 73.6877 63.6856 73.6945 63.7181 73.7078C63.7507 73.7213 63.7782 73.7402 63.8008 73.7647ZM63.7928 73.9815C63.7932 73.9084 63.7769 73.852 63.744 73.8123C63.7109 73.7722 63.6658 73.7522 63.6083 73.7519C63.5505 73.7516 63.505 73.7712 63.4716 73.8109C63.4384 73.8503 63.4217 73.9065 63.4213 73.9796C63.421 74.0534 63.4374 74.1099 63.4708 74.1494C63.5044 74.1887 63.5495 74.2085 63.606 74.2088C63.6627 74.2091 63.7079 74.1897 63.7416 74.1508C63.7755 74.1116 63.7925 74.0553 63.7928 73.9815ZM64.4499 74.2245C64.4187 74.2385 64.3847 74.2507 64.3477 74.2611C64.3109 74.2713 64.2751 74.2761 64.2407 74.2759C64.1963 74.2757 64.1555 74.2695 64.1186 74.2573C64.0817 74.245 64.0503 74.2268 64.0244 74.2024C63.9984 74.1778 63.9781 74.1472 63.964 74.1105C63.95 74.0737 63.9431 74.0307 63.9434 73.9817C63.9438 73.8917 63.9708 73.821 64.0241 73.7691C64.0777 73.7174 64.1508 73.6917 64.2437 73.6922C64.276 73.6924 64.3092 73.6966 64.3428 73.7043C64.3767 73.7124 64.4131 73.7254 64.452 73.7439L64.4516 73.8328L64.4446 73.8327C64.4367 73.8266 64.4253 73.8185 64.4103 73.8087C64.3954 73.799 64.3805 73.7906 64.366 73.784C64.3486 73.7761 64.3285 73.7696 64.3062 73.7643C64.2839 73.7589 64.2587 73.7562 64.2304 73.7561C64.1665 73.7558 64.1161 73.7758 64.0787 73.8158C64.0414 73.8562 64.0225 73.9109 64.0222 73.9798C64.0218 74.0526 64.0409 74.1093 64.0795 74.1501C64.118 74.1904 64.1708 74.2111 64.2377 74.2114C64.2621 74.2115 64.2865 74.2093 64.3109 74.2046C64.3354 74.1998 64.3568 74.1939 64.3751 74.1864L64.376 74.0224L64.1962 74.0215L64.1965 73.9557L64.4512 73.957L64.4499 74.2245ZM65.0157 74.2689L64.9351 74.2685L64.8799 74.1115L64.6336 74.1103L64.5769 74.2667L64.4999 74.2663L64.7101 73.7047L64.8112 73.7052L65.0157 74.2689ZM64.857 74.0473L64.7587 73.7705L64.6569 74.0463L64.857 74.0473ZM65.4098 74.2709L65.0797 74.2692L65.0825 73.7066L65.1582 73.707L65.1557 74.2031L65.4101 74.2044L65.4098 74.2709ZM65.9567 74.2737L65.8758 74.2733L65.8207 74.1163L65.5744 74.115L65.5178 74.2715L65.4409 74.2711L65.6511 73.7095L65.7522 73.71L65.9567 74.2737ZM65.7977 74.0521L65.6992 73.7753L65.5976 74.0511L65.7977 74.0521ZM66.4622 74.2763L66.3683 74.2758L66.1009 73.7712L66.0983 74.2744L66.0274 74.2741L66.0303 73.7114L66.1478 73.712L66.3918 74.1727L66.3942 73.7133L66.465 73.7136L66.4622 74.2763ZM67.0806 73.9988C67.0804 74.05 67.0688 74.0961 67.046 74.1375C67.0232 74.179 66.9929 74.2111 66.9553 74.2338C66.9294 74.2496 66.9002 74.2609 66.8682 74.2678C66.8362 74.2745 66.794 74.278 66.7416 74.2777L66.5978 74.277L66.6006 73.7143L66.7429 73.7151C66.7987 73.7153 66.8428 73.7195 66.8756 73.7277C66.9084 73.7357 66.9358 73.7467 66.9586 73.7608C66.9973 73.7848 67.0273 73.8169 67.0487 73.8568C67.0703 73.8966 67.0809 73.9439 67.0806 73.9986L67.0806 73.9988ZM67.0016 73.9973C67.0019 73.9533 66.9943 73.9161 66.9788 73.8857C66.9635 73.8554 66.9404 73.8315 66.9097 73.814C66.8873 73.8013 66.8635 73.7925 66.8383 73.7875C66.8129 73.7824 66.7827 73.7797 66.7476 73.7795L66.6764 73.7792L66.6742 74.2134L66.7454 74.2137C66.7817 74.2139 66.8137 74.2113 66.8408 74.2063C66.8681 74.2011 66.8931 74.1915 66.9159 74.1772C66.9443 74.1594 66.9655 74.1362 66.9799 74.1069C66.9943 74.0778 67.0014 74.0412 67.0016 73.9974L67.0016 73.9973ZM63.5428 75.3043L63.3997 75.3036L62.9911 74.5331L62.9872 75.3015L62.8791 75.3009L62.8835 74.4419L63.0629 74.4428L63.4357 75.1463L63.4392 74.4447L63.5472 74.4453L63.5428 75.3043ZM64.4027 74.5484C64.4378 74.5869 64.4648 74.6341 64.4835 74.69C64.5021 74.7459 64.5112 74.8092 64.5108 74.8799C64.5105 74.9507 64.5006 75.0141 64.4811 75.0699C64.4614 75.1258 64.4341 75.1723 64.3994 75.2094C64.3632 75.2481 64.3208 75.2771 64.2718 75.2964C64.2228 75.3158 64.167 75.3253 64.1042 75.325C64.0431 75.3247 63.9876 75.3144 63.9376 75.2942C63.8878 75.2739 63.8453 75.2446 63.8103 75.2064C63.7755 75.168 63.7489 75.1212 63.7301 75.0658C63.7116 75.0104 63.7023 74.947 63.7027 74.8757C63.7031 74.8058 63.7128 74.7431 63.7319 74.6877C63.7507 74.6322 63.7782 74.5848 63.8143 74.5454C63.8488 74.5078 63.8914 74.4793 63.9423 74.4593C63.9934 74.4397 64.0489 74.4299 64.1088 74.4302C64.1712 74.4305 64.2271 74.4408 64.2767 74.4613C64.3263 74.4819 64.3682 74.5109 64.4027 74.5484ZM64.3909 74.8794C64.3914 74.768 64.3665 74.6818 64.3163 74.621C64.2658 74.5601 64.1969 74.5296 64.1093 74.5291C64.0208 74.5287 63.9514 74.5585 63.9004 74.6189C63.8498 74.6791 63.8239 74.7651 63.8234 74.8765C63.8228 74.9893 63.8482 75.0757 63.8993 75.1357C63.9504 75.1957 64.0192 75.2261 64.1057 75.2265C64.1921 75.227 64.2612 75.1973 64.3126 75.1379C64.3643 75.0783 64.3903 74.9922 64.3909 74.8794ZM65.3884 75.3137L65.2382 75.3129L64.9489 74.9699L64.7858 74.9691L64.7841 75.3106L64.6685 75.31L64.6729 74.451L64.9164 74.4523C64.9691 74.4525 65.0128 74.456 65.048 74.463C65.0831 74.4698 65.1145 74.4821 65.1425 74.4995C65.1739 74.5193 65.1984 74.5442 65.2159 74.574C65.2335 74.6039 65.2422 74.6418 65.2419 74.6875C65.2416 74.7495 65.2255 74.8013 65.1938 74.8427C65.1621 74.8844 65.1185 74.9155 65.0631 74.9363L65.3884 75.3136L65.3884 75.3137ZM65.1208 74.6952C65.1209 74.6706 65.1165 74.6486 65.108 74.6296C65.0992 74.6106 65.0849 74.5943 65.0647 74.5812C65.048 74.57 65.0282 74.5622 65.0052 74.5575C64.9821 74.553 64.9551 74.5507 64.9239 74.5505L64.7878 74.5498L64.7861 74.8741L64.9031 74.8747C64.9397 74.8748 64.9717 74.8718 64.9989 74.8655C65.0263 74.8594 65.0495 74.8475 65.0687 74.8304C65.0863 74.8143 65.0994 74.7958 65.1077 74.7749C65.1163 74.754 65.1206 74.7273 65.1208 74.6951L65.1208 74.6952ZM66.2022 75.2547C66.1547 75.2759 66.1026 75.2944 66.0461 75.31C65.9899 75.3257 65.9355 75.3334 65.8829 75.3331C65.8152 75.3328 65.7529 75.3233 65.6967 75.3045C65.6402 75.2857 65.5923 75.258 65.5528 75.2208C65.5127 75.1832 65.482 75.1364 65.4605 75.0804C65.439 75.0243 65.4284 74.9587 65.4288 74.8838C65.4295 74.7465 65.4707 74.6383 65.5523 74.5594C65.6338 74.4803 65.7455 74.4411 65.8874 74.4419C65.9369 74.4421 65.9874 74.4483 66.0389 74.4604C66.0905 74.4722 66.1461 74.4926 66.2055 74.5209L66.2048 74.6564L66.1943 74.6564C66.1823 74.6472 66.1647 74.6348 66.1418 74.6197C66.119 74.6046 66.0965 74.5919 66.0742 74.5819C66.0475 74.5697 66.017 74.5598 65.983 74.5516C65.9489 74.5437 65.9102 74.5396 65.867 74.5393C65.7697 74.5388 65.6924 74.5693 65.6354 74.6308C65.5784 74.6923 65.5497 74.7756 65.5491 74.8811C65.5486 74.992 65.5779 75.0787 65.6366 75.1406C65.6955 75.2028 65.776 75.234 65.8781 75.2345C65.9155 75.2347 65.9529 75.2312 65.9899 75.2242C66.0273 75.2171 66.06 75.2077 66.0881 75.1963L66.0893 74.952L65.7968 74.9505L65.7973 74.85L66.2043 74.8521L66.2022 75.2547ZM66.9536 75.3217L66.3803 75.3188L66.3847 74.4598L66.958 74.4627L66.9575 74.5643L66.4999 74.562L66.4987 74.7972L66.8549 74.7991L66.8544 74.9006L66.4982 74.8987L66.4965 75.2178L66.9541 75.2202L66.9536 75.3217Z" fill="white"/>
</g>
<defs>
<linearGradient id="paint0_linear" x1="173.14" y1="83.328" x2="-0.231854" y2="106.306" gradientUnits="userSpaceOnUse">
<stop stop-color="#76EBD8"/>
<stop offset="1" stop-color="#C8E9F7"/>
</linearGradient>
<linearGradient id="paint1_linear" x1="169.184" y1="53.4768" x2="-4.18797" y2="76.4544" gradientUnits="userSpaceOnUse">
<stop stop-color="#76EBD8"/>
<stop offset="1" stop-color="#C8E9F7"/>
</linearGradient>
<linearGradient id="paint2_linear" x1="170.158" y1="60.8278" x2="-3.21397" y2="83.8055" gradientUnits="userSpaceOnUse">
<stop stop-color="#76EBD8"/>
<stop offset="1" stop-color="#C8E9F7"/>
</linearGradient>
<linearGradient id="paint3_linear" x1="63.8924" y1="99.9028" x2="27.3846" y2="36.6676" gradientUnits="userSpaceOnUse">
<stop stop-color="#30358C"/>
<stop offset="1" stop-color="#367AD1"/>
</linearGradient>
<linearGradient id="paint4_linear" x1="5.71068" y1="68.2862" x2="78.7174" y2="68.2862" gradientUnits="userSpaceOnUse">
<stop stop-color="#7AC9EB"/>
<stop offset="0.2201" stop-color="#76C5EA"/>
<stop offset="0.4481" stop-color="#6CB8E6"/>
<stop offset="0.6798" stop-color="#5AA4DF"/>
<stop offset="0.9126" stop-color="#4187D5"/>
<stop offset="1" stop-color="#367AD1"/>
</linearGradient>
<linearGradient id="paint5_linear" x1="59.557" y1="98.3222" x2="24.8745" y2="38.2486" gradientUnits="userSpaceOnUse">
<stop stop-color="#30358C"/>
<stop offset="1" stop-color="#367AD1"/>
</linearGradient>
<linearGradient id="paint6_linear" x1="51.6848" y1="43.0696" x2="16.5165" y2="66.7319" gradientUnits="userSpaceOnUse">
<stop stop-color="white"/>
<stop offset="1"/>
</linearGradient>
<linearGradient id="paint7_linear" x1="51.6848" y1="43.0696" x2="16.5165" y2="66.7319" gradientUnits="userSpaceOnUse">
<stop stop-color="#76EBD8"/>
<stop offset="1" stop-color="white"/>
</linearGradient>
<linearGradient id="paint8_linear" x1="119.379" y1="97.7867" x2="119.379" y2="46.7247" gradientUnits="userSpaceOnUse">
<stop stop-color="#30358C"/>
<stop offset="1" stop-color="#367AD1"/>
</linearGradient>
<linearGradient id="paint9_linear" x1="71.308" y1="40.3226" x2="109.127" y2="109.406" gradientUnits="userSpaceOnUse">
<stop stop-color="#7AC9EB"/>
<stop offset="0.2201" stop-color="#76C5EA"/>
<stop offset="0.4481" stop-color="#6CB8E6"/>
<stop offset="0.6798" stop-color="#5AA4DF"/>
<stop offset="0.9126" stop-color="#4187D5"/>
<stop offset="1" stop-color="#367AD1"/>
</linearGradient>
<linearGradient id="paint10_linear" x1="130.338" y1="101.47" x2="117.808" y2="61.3737" gradientUnits="userSpaceOnUse">
<stop stop-color="#30358C"/>
<stop offset="0.0214593" stop-color="#30388F"/>
<stop offset="0.2711" stop-color="#3355AC"/>
<stop offset="0.5195" stop-color="#3569C0"/>
<stop offset="0.764" stop-color="#3676CD"/>
<stop offset="1" stop-color="#367AD1"/>
</linearGradient>
<linearGradient id="paint11_linear" x1="39.1763" y1="113.207" x2="56.6573" y2="82.9283" gradientUnits="userSpaceOnUse">
<stop stop-color="#EC7B35"/>
<stop offset="1" stop-color="#FA9C55"/>
</linearGradient>
<linearGradient id="paint12_linear" x1="156.419" y1="112.505" x2="178.27" y2="74.6568" gradientUnits="userSpaceOnUse">
<stop stop-color="#EC7B35"/>
<stop offset="1" stop-color="#FA9C55"/>
</linearGradient>
</defs>
</svg>
