<svg xmlns="http://www.w3.org/2000/svg" width="16" height="16" viewBox="0 0 16 16">
    <path stroke="#3C4162" stroke-width=".2" d="M14.5 1.082H4.355c-.542 0-.982.44-.982.982v10.145c0 .542.44.982.982.982H14.5c.541 0 .982-.44.982-.982V2.064c0-.542-.44-.982-.982-.982zm.327 11.127c0 .18-.147.327-.327.327H4.355c-.18 0-.328-.146-.328-.327V2.064c0-.181.147-.328.328-.328H14.5c.18 0 .327.147.327.328v10.145zm-2.29 2.291c0 .18-.148.327-.328.327H2.064c-.18 0-.328-.146-.328-.327V4.355c0-.181.147-.328.328-.328h.327v-.654h-.327c-.542 0-.982.44-.982.982V14.5c0 .541.44.982.982.982h10.145c.542 0 .982-.44.982-.982v-.327h-.655v.327z"/>
</svg>
