<svg xmlns="http://www.w3.org/2000/svg" width="12" height="12" viewBox="0 0 12 12">
    <g fill="none" fill-rule="evenodd">
        <g fill="#3C4162" fill-rule="nonzero">
            <g>
                <g>
                    <path d="M11.745 11.682l-.052.052c-.392.393-.705.288-.992 0L6 7.054l-4.674 4.68c-.314.314-.6.393-.993 0l-.078-.052c-.392-.392-.287-.706 0-.993l4.7-4.707-4.674-4.68C-.03.988-.109.701.282.31L.334.256c.392-.392.705-.287.993 0L6 4.936l4.673-4.68c.314-.313.627-.366.993 0l.052.053c.392.392.287.706 0 .993l-4.674 4.68 4.7 4.707c.313.313.366.627 0 .993z" transform="translate(-24 -81) translate(10 67) translate(14 14)"/>
                </g>
            </g>
        </g>
    </g>
</svg>
