<svg xmlns="http://www.w3.org/2000/svg" width="20" height="13" viewBox="0 0 20 13">
    <path d="M18.553.276c-.186.024-.359.112-.488.248-.09.089-.875.84-1.938 1.852l-3.805 3.617C10.95 7.296 9.579 8.598 8.516 9.61c-.763.726-1.075 1.029-1.414 1.354L1.633 6.241C1.29 5.943.77 5.98.472 6.323c-.299.343-.262.863.081 1.161l6.034 5.212c.328.283.819.264 1.123-.043.089-.089.875-.84 1.937-1.852l3.806-3.617c1.372-1.303 2.743-2.605 3.806-3.617 1.063-1.012 1.786-1.7 1.971-1.886.253-.246.32-.627.167-.946-.153-.318-.493-.503-.844-.46z"/>
</svg>
