<svg xmlns="http://www.w3.org/2000/svg" width="17" height="8" viewBox="0 0 17 8">
    <path  d="M15.957 4.36l.365-.384-1.306-1.21c.422-.46.806-.96 1.114-1.497L15.669 1c-1.344 2.38-4.032 3.86-6.989 3.86S3.035 3.38 1.691 1l-.46.269c.307.537.671 1.037 1.113 1.478L1 3.976l.365.403 1.363-1.248c.422.384.864.71 1.363 1.018L2.958 5.435l.404.346 1.21-1.383c.518.27 1.055.48 1.631.634l-.921 1.344.441.307 1.018-1.517c.557.116 1.113.192 1.69.212v1.67h.537v-1.67c.576-.02 1.133-.077 1.69-.192l.998 1.516.442-.288-.903-1.344c.576-.153 1.114-.364 1.632-.633L13.998 5.8l.404-.346-1.095-1.286c.5-.288.941-.634 1.363-1.018l1.287 1.21z"/>
</svg>
