<svg xmlns="http://www.w3.org/2000/svg" width="15" height="19" viewBox="0 0 15 19">
    <g>
        <path d="M6.71 10.895c.04-.099.04-.198 0-.277-.039-.098-.118-.157-.197-.197-.04-.02-.079-.02-.138-.02-.158 0-.296.099-.355.237-.553 1.401-2.487 4.086-4.283 5.073-.08.039-.158.118-.178.217-.02.098-.02.197.04.276.098.178.335.237.493.138 2.053-1.105 4.026-3.928 4.619-5.447z"/>
        <path d="M8.31 11.763C8.881 10.125 8.17 9 7.223 8.625c-.237-.099-.513-.138-.79-.138-.927 0-1.697.533-2.092 1.44-.513 1.185-1.835 3.257-3.395 4.126-.177.098-.236.315-.138.493.099.178.336.237.494.138 1.855-1.006 3.256-3.375 3.73-4.48.276-.632.81-.987 1.42-.987.179 0 .356.04.514.099.612.237 1.086.927.651 2.19-.65 1.915-3.098 4.48-4.697 5.35-.079.039-.158.118-.178.216-.02.1-.02.198.04.277.099.177.335.237.493.158 1.737-.948 4.323-3.671 5.033-5.744z"/>
        <path d="M8.447 5.507c-.947-.375-1.993-.474-3-.296-1.855.355-3.276 1.381-4.026 2.9l-.04.06C1.106 8.724.83 9.296.337 9.434c-.198.06-.297.277-.237.454.059.198.276.296.454.237.79-.237 1.184-1.026 1.48-1.658l.02-.04c.65-1.322 1.894-2.21 3.513-2.506.296-.06.592-.079.868-.079.592 0 1.184.119 1.737.336 2.112.829 3.69 3.296 2.605 6.434-.493 1.42-1.559 3.02-2.98 4.54-.138.137-.138.374.02.512.138.139.375.139.513-.02 1.5-1.578 2.605-3.276 3.138-4.795 1.263-3.553-.572-6.395-3.02-7.342z"/>
        <path d="M14.921 8.605c.06-.079.06-.177.04-.276-.652-2.724-2.389-4.796-4.895-5.842-1.086-.454-2.23-.69-3.415-.69-1.618 0-3.197.433-4.579 1.262-.177.099-.236.336-.118.513.099.178.335.217.513.119 1.263-.77 2.704-1.165 4.184-1.165 1.086 0 2.132.217 3.138.632 2.27.947 3.869 2.842 4.461 5.329.04.158.197.276.355.276h.08c.098-.02.177-.079.236-.158z"/>
        <path d="M6.829.06c-.75 0-1.52.078-2.329.197-.197.04-.336.217-.296.434.04.197.217.335.414.296.75-.138 1.5-.198 2.191-.198C10.875.79 12.908 3 13.6 3.947c.118.158.355.198.513.08.079-.06.138-.139.158-.238.02-.098 0-.197-.06-.276C13.46 2.487 11.25.06 6.83.06zM11.684 15.474c.178.098.415.04.513-.138.375-.652.671-1.303.889-1.935 1.578-4.54-.889-8.27-4.007-9.473-.829-.316-1.717-.494-2.605-.494-.435 0-.888.04-1.323.119C3.217 3.908 1.6 5.013.474 6.73c-.06.08-.08.178-.06.277.02.098.08.177.158.236.158.119.395.06.514-.098 1.026-1.58 2.447-2.527 4.184-2.862.394-.08.79-.119 1.184-.119.81 0 1.579.139 2.329.435 2.803 1.105 5.013 4.48 3.592 8.565-.217.593-.493 1.204-.829 1.816-.099.178-.04.395.138.494z"/>
        <path d="M4.993 18.395c1.856-1.323 4.125-3.849 4.895-6.08.928-2.683-.414-4.598-2.052-5.25-.672-.256-1.402-.335-2.093-.197-1.282.237-2.388 1.145-2.94 2.389-.592 1.342-1.441 2.329-2.566 2.9-.178.1-.257.317-.158.494.099.178.316.257.493.158 1.264-.651 2.25-1.756 2.902-3.276.434-1.026 1.342-1.757 2.408-1.954.197-.04.375-.06.572-.06.375 0 .75.08 1.125.218 1.322.513 2.408 2.092 1.638 4.322-.73 2.112-2.901 4.48-4.638 5.724-.158.118-.197.355-.079.513.099.178.336.217.493.099z"/>
    </g>
</svg>
