<svg width="13" height="16" viewBox="0 0 13 16" fill="none" xmlns="http://www.w3.org/2000/svg">
<path d="M11.55 16H3.45C2.65 16 2 15.3067 2 14.4533V0.533333C2 0.213333 2.2 0 2.5 0H11.55C12.35 0 13 0.693333 13 1.54667V14.4533C13 15.3067 12.35 16 11.55 16ZM3 1.06667V14.4533C3 14.72 3.2 14.9333 3.45 14.9333H11.55C11.8 14.9333 12 14.72 12 14.4533V1.54667C12 1.28 11.8 1.06667 11.55 1.06667H3Z" />
<path d="M2.5 7.46667H1.45C0.65 7.46667 0 6.77333 0 5.92V1.54667C0 0.693333 0.65 0 1.45 0H2.5C2.8 0 3 0.213333 3 0.533333V6.93333C3 7.25333 2.8 7.46667 2.5 7.46667ZM1.45 1.06667C1.2 1.06667 1 1.28 1 1.54667V5.92C1 6.18667 1.2 6.4 1.45 6.4H2V1.06667H1.45Z" />
<path d="M10 3.20046H5C4.7 3.20046 4.5 2.98712 4.5 2.66712C4.5 2.34712 4.7 2.13379 5 2.13379H10C10.3 2.13379 10.5 2.34712 10.5 2.66712C10.5 2.98712 10.3 3.20046 10 3.20046Z" />
<path d="M10 6.39967H5C4.7 6.39967 4.5 6.18634 4.5 5.86634C4.5 5.54634 4.7 5.33301 5 5.33301H10C10.3 5.33301 10.5 5.54634 10.5 5.86634C10.5 6.18634 10.3 6.39967 10 6.39967Z" />
<path d="M8 9.59987H5C4.7 9.59987 4.5 9.38654 4.5 9.06654C4.5 8.74654 4.7 8.5332 5 8.5332H8C8.3 8.5332 8.5 8.74654 8.5 9.06654C8.5 9.38654 8.3 9.59987 8 9.59987Z" />
</svg>
