<svg xmlns="http://www.w3.org/2000/svg" width="14" height="18" viewBox="0 0 14 18">
    <path d="M1.409.235C.636.235 0 .87 0 1.643V15.73c0 .773.636 1.41 1.409 1.41h3.756c.17.002.327-.087.412-.234.086-.146.086-.327 0-.473-.085-.146-.242-.235-.412-.233H1.41c-.269 0-.47-.201-.47-.47V1.643c0-.268.201-.47.47-.47h3.756c.17.003.327-.086.412-.232.086-.146.086-.327 0-.473C5.492.32 5.335.232 5.165.235H1.41zm8.386 4.219c-.175.021-.323.14-.383.305-.06.165-.023.35.097.48l2.604 2.978H3.712c-.167.008-.318.105-.395.254-.077.15-.069.328.022.47.09.141.25.223.418.216h8.356L9.51 12.128c-.171.195-.153.49.041.663.194.171.49.154.663-.04L13.5 8.996c.158-.178.158-.446 0-.624l-3.287-3.756c-.103-.121-.26-.182-.418-.161z"/>
</svg>
