<svg xmlns="http://www.w3.org/2000/svg" width="16" height="10" viewBox="0 0 16 10">
    <g>
        <path d="M14.925 4.87l.904-.778c.187-.162-.399-.842-.586-.68l-1.009.87c-.26-.208-.554-.429-.878-.65-.119-.082-.239-.16-.359-.238l.666-1.003c.137-.206-.61-.702-.748-.496l-.692 1.043c-.426-.232-.854-.432-1.28-.597l-.166-.063.336-1.136c.07-.238-.79-.492-.86-.255L9.92 2.01c-.517-.134-1.03-.218-1.534-.249V.532c0-.247-.897-.247-.897 0V1.76c-.503.031-1.015.114-1.53.249L5.629.887c-.07-.237-.931.017-.86.255l.335 1.135-.17.064c-.425.165-.852.364-1.278.595l-.69-1.041c-.138-.207-.885.29-.748.496l.665 1.002c-.121.077-.242.156-.362.238-.322.22-.615.44-.874.648l-.886-.78c-.186-.165-.779.509-.593.672l.788.695c-.405.368-.636.622-.654.642l-.272.3.272.302c.035.038.869.953 2.219 1.876.795.544 1.607.978 2.412 1.29 1.018.395 2.03.595 3.005.595.976 0 1.987-.2 3.006-.595.805-.312 1.617-.746 2.412-1.29 1.35-.923 2.184-1.838 2.219-1.876l.272-.301-.272-.301c-.018-.02-.247-.272-.65-.637zm-2.093 2.388c-.737.502-1.486.901-2.225 1.186-.91.352-1.808.53-2.668.53-.861 0-1.76-.178-2.67-.53-.738-.285-1.487-.684-2.224-1.186-.815-.556-1.439-1.117-1.781-1.45.339-.328.953-.882 1.763-1.435.739-.506 1.49-.908 2.23-1.195.915-.354 1.817-.534 2.681-.534.86 0 1.76.178 2.67.53.738.285 1.487.684 2.224 1.186.815.555 1.438 1.117 1.781 1.449-.343.332-.966.894-1.781 1.449z"/>
        <path d="M7.935 3.4c-.621 0-1.188.236-1.614.624l1.395 1.613-2.053-.614c-.083.244-.13.506-.13.779 0 1.326 1.076 2.402 2.403 2.402 1.326 0 2.401-1.076 2.401-2.402 0-1.327-1.075-2.402-2.402-2.402z"/>
    </g>
</svg>
