<svg width="16" height="17" viewBox="0 0 16 17" fill="none" xmlns="http://www.w3.org/2000/svg">
<path d="M8.02055 10.0028C5.2162 10.0028 2.93359 7.76314 2.93359 5.01157C2.93359 2.26 5.2162 -0.000976562 8.02055 -0.000976562C10.8249 -0.000976562 13.1075 2.23867 13.1075 4.99024C13.1075 7.74181 10.8249 10.0028 8.02055 10.0028ZM8.02055 1.70542C6.17272 1.70542 4.65099 3.17719 4.65099 5.01157C4.65099 6.84595 6.17272 8.29639 8.02055 8.29639C9.86838 8.29639 11.3901 6.82462 11.3901 4.99024C11.3901 3.15586 9.86838 1.70542 8.02055 1.70542Z" />
<path d="M15.1739 16.9995C14.6957 16.9995 14.3043 16.6156 14.3043 16.1463C14.3043 12.7548 11.5 9.98194 8.02174 9.98194C4.54348 9.98194 1.73913 12.7548 1.73913 16.1463C1.73913 16.6156 1.34783 16.9995 0.869565 16.9995C0.391304 16.9995 0 16.6156 0 16.1463C0 11.8163 3.58696 8.29688 8 8.29688C12.413 8.29688 16 11.8163 16 16.1463C16.0217 16.6156 15.6522 16.9995 15.1739 16.9995Z" />
</svg>
