<svg width="16" height="11" viewBox="0 0 16 11" fill="none" xmlns="http://www.w3.org/2000/svg">
<path d="M14 0H2C0.866667 0 0 0.89375 0 2.0625V8.9375C0 10.1062 0.866667 11 2 11H14C15.1333 11 16 10.1062 16 8.9375V2.0625C16 0.89375 15.1333 0 14 0ZM14.6667 8.9375C14.6667 9.35 14.4 9.625 14 9.625H2C1.6 9.625 1.33333 9.35 1.33333 8.9375V4.125H14.6667V8.9375ZM14.6667 2.75H1.33333V2.0625C1.33333 1.65 1.6 1.375 2 1.375H14C14.4 1.375 14.6667 1.65 14.6667 2.0625V2.75ZM10.6667 8.25C10.6667 7.8375 10.9333 7.5625 11.3333 7.5625H12.6667C13.0667 7.5625 13.3333 7.8375 13.3333 8.25C13.3333 8.6625 13.0667 8.9375 12.6667 8.9375H11.3333C10.9333 8.9375 10.6667 8.6625 10.6667 8.25Z" />
</svg>
