<svg xmlns="http://www.w3.org/2000/svg" width="16" height="16" viewBox="0 0 16 16">
    <g>
        <path d="M2.824 15.95c.244 0 .441-.198.441-.442V7.556h.084c1.236 0 2.241-1.005 2.241-2.24v-4.8c0-.243-.197-.44-.441-.44-.243 0-.44.197-.44.44v4.8c0 .749-.611 1.358-1.36 1.358H2.3c-.748 0-1.358-.61-1.358-1.358v-4.8c0-.243-.197-.44-.44-.44C.257.075.06.272.06.515v4.8c0 1.235 1.005 2.24 2.24 2.24h.083v7.953c0 .243.197.44.441.44zM15.907 5.848V.516c0-.243-.197-.44-.441-.44H7.891c-.243 0-.44.197-.44.44v5.332c0 2.419 1.598 4.28 3.786 4.5v4.72H8.828c-.243 0-.44.197-.44.44 0 .244.197.442.44.442H14.9c.244 0 .441-.198.441-.441 0-.244-.197-.441-.44-.441h-2.782v-4.72c2.188-.22 3.788-2.08 3.788-4.5zm-.882-4.89v3.115c-.315.342-1.47 1.36-3.356.298-1.323-.745-2.533-.53-3.336-.134V.957h6.692z"/>
        <path d="M8.333 5.848v-.575c.37-.278 1.482-.933 2.904-.133.763.43 1.442.588 2.03.588.74 0 1.33-.252 1.758-.528v.648c0 2.11-1.407 3.64-3.346 3.64-1.94 0-3.346-1.53-3.346-3.64zM3.265 5.067V.517c0-.244-.197-.442-.44-.442-.245 0-.442.198-.442.441v4.55c0 .245.197.442.441.442s.441-.198.441-.441z"/>
    </g>
</svg>
