<svg xmlns="http://www.w3.org/2000/svg" width="17" height="16" viewBox="0 0 17 16">
    <path d="M0 0v6.4c0 1.326.952 2.4 2.125 2.4S4.25 7.726 4.25 6.4c0 1.326.952 2.4 2.125 2.4S8.5 7.726 8.5 6.4c0 1.326.951 2.4 2.125 2.4s2.125-1.074 2.125-2.4c0 1.326.951 2.4 2.125 2.4S17 7.726 17 6.4V0H0zm16.227 6.4c0 .884-.605 1.6-1.352 1.6-.747 0-1.352-.716-1.352-1.6 0-.442-.346-.8-.773-.8-.427 0-.773.358-.773.8 0 .884-.605 1.6-1.352 1.6-.747 0-1.352-.716-1.352-1.6 0-.442-.346-.8-.773-.8-.427 0-.773.358-.773.8 0 .884-.605 1.6-1.352 1.6-.747 0-1.352-.716-1.352-1.6 0-.442-.346-.8-.773-.8-.427 0-.773.358-.773.8 0 .884-.605 1.6-1.352 1.6C1.378 8 .773 7.284.773 6.4V.8h15.454v5.6zm-.772 4h-.773v4h-4.637V9.6h-3.09v4.8H2.318v-4h-.773v4H0V16h17v-1.6h-1.545v-4z"/>
</svg>
