<svg xmlns="http://www.w3.org/2000/svg" width="15" height="15" viewBox="0 0 15 15">
    <path d="M4.039 4.51c.115 0 .23-.043.318-.13l2.689-2.69v9.258c0 .248.201.45.45.45.248 0 .45-.202.45-.45V1.69l2.697 2.698c.088.088.204.131.319.131.115 0 .23-.043.318-.131.176-.176.176-.461 0-.636L7.814.285C7.772.244 7.722.21 7.667.188L7.66.186c-.05-.02-.106-.032-.164-.032-.058 0-.114.012-.165.032-.002 0-.004 0-.006.002-.056.023-.106.056-.148.098L3.72 3.743c-.175.175-.175.46 0 .636.088.088.203.132.319.132zM14.4 7.05h-3.44c-.248 0-.45.201-.45.45 0 .248.202.45.45.45h2.98v5.996H1.05V7.95h2.99c.248 0 .45-.202.45-.45 0-.249-.202-.45-.45-.45H.599c-.249 0-.45.201-.45.45v6.896c0 .248.201.45.45.45h13.793c.248 0 .45-.201.45-.45V7.59c.006-.03.009-.06.009-.09 0-.249-.202-.45-.45-.45z"/>
</svg>
