<svg width="16" height="16" viewBox="0 0 16 16" fill="none" xmlns="http://www.w3.org/2000/svg">
<path d="M3.42006 2.67779H0.469558C0.21025 2.67779 0 2.46326 0 2.19868C0 1.9341 0.21025 1.71957 0.469558 1.71957H3.41656C3.67587 1.71957 3.88611 1.9341 3.88611 2.19868C3.88611 2.46326 3.67937 2.67779 3.42006 2.67779Z" fill="#3C4162"/>
<path d="M5.10208 4.39777C3.91417 4.39777 2.94702 3.41095 2.94702 2.19888C2.94702 0.986816 3.91417 0 5.10208 0C6.28999 0 7.25714 0.986816 7.25714 2.19888C7.25714 3.41095 6.29349 4.39777 5.10208 4.39777ZM5.10208 0.961788C4.43279 0.961788 3.88614 1.51598 3.88614 2.20246C3.88614 2.88894 4.42928 3.43956 5.10208 3.43956C5.77488 3.43956 6.31802 2.88537 6.31802 2.20246C6.31802 1.51955 5.77488 0.961788 5.10208 0.961788Z" fill="#3C4162"/>
<path d="M15.5268 2.67779H8.49397C8.23466 2.67779 8.02441 2.46326 8.02441 2.19868C8.02441 1.9341 8.23466 1.71957 8.49397 1.71957H15.5268C15.7861 1.71957 15.9964 1.9341 15.9964 2.19868C15.9964 2.46326 15.7861 2.67779 15.5268 2.67779Z" fill="#3C4162"/>
<path d="M11.4202 10.2005C10.2323 10.2005 9.26514 9.21373 9.26514 8.00166C9.26514 6.78959 10.2323 5.80277 11.4202 5.80277C12.6081 5.80277 13.5753 6.78959 13.5753 8.00166C13.5753 9.21373 12.6116 10.2005 11.4202 10.2005ZM11.4202 6.76099C10.7509 6.76099 10.2043 7.31518 10.2043 7.99808C10.2043 8.68099 10.7474 9.23518 11.4202 9.23518C12.093 9.23518 12.6361 8.68099 12.6361 7.99808C12.6361 7.31518 12.0895 6.76099 11.4202 6.76099Z" fill="#3C4162"/>
<path d="M8.02803 8.48097H0.469558C0.21025 8.48097 0 8.26645 0 8.00187C0 7.73729 0.21025 7.52277 0.469558 7.52277H8.02803C8.28734 7.52277 8.49759 7.73729 8.49759 8.00187C8.49759 8.26645 8.29085 8.48097 8.02803 8.48097Z" fill="#3C4162"/>
<path d="M15.5269 8.48097H13.1055C12.8462 8.48097 12.636 8.26645 12.636 8.00187C12.636 7.73729 12.8462 7.52277 13.1055 7.52277H15.5269C15.7862 7.52277 15.9965 7.73729 15.9965 8.00187C15.9965 8.26645 15.7862 8.48097 15.5269 8.48097Z" fill="#3C4162"/>
<path d="M4.5762 16C3.38829 16 2.42114 15.0132 2.42114 13.8012C2.42114 12.5891 3.38829 11.6023 4.5762 11.6023C5.76411 11.6023 6.73126 12.5891 6.73126 13.8012C6.73126 15.0168 5.76411 16 4.5762 16ZM4.5762 12.5641C3.90691 12.5641 3.36026 13.1183 3.36026 13.8012C3.36026 14.4841 3.9034 15.0418 4.5762 15.0418C5.249 15.0418 5.79214 14.4876 5.79214 13.8012C5.79214 13.1147 5.24549 12.5641 4.5762 12.5641Z" fill="#3C4162"/>
<path d="M15.5271 14.2838H7.96858C7.70927 14.2838 7.49902 14.0692 7.49902 13.8047C7.49902 13.5401 7.70927 13.3256 7.96858 13.3256H15.5271C15.7864 13.3256 15.9966 13.5401 15.9966 13.8047C15.9966 14.0692 15.7864 14.2838 15.5271 14.2838Z" fill="#3C4162"/>
<path d="M2.89093 14.2836H0.469558C0.21025 14.2836 0 14.0691 0 13.801C0 13.5364 0.21025 13.3219 0.469558 13.3219H2.89093C3.15024 13.3219 3.36049 13.5364 3.36049 13.801C3.36399 14.0691 3.15374 14.2836 2.89093 14.2836Z" fill="#3C4162"/>
</svg>
