<svg xmlns="http://www.w3.org/2000/svg" width="19" height="19" viewBox="0 0 19 19">
    <path stroke-width=".3" d="M18.545 1.495c0-.015.005-.025.005-.04V1.44v-.045c0-.015-.005-.03-.01-.045 0-.005 0-.005-.005-.01-.005-.015-.005-.025-.01-.04v-.005c-.005-.015-.015-.03-.02-.045l-.005-.005-.02-.035c0-.005-.005-.005-.005-.01-.01-.015-.02-.025-.03-.035-.01-.01-.025-.02-.035-.03-.005 0-.005-.005-.01-.005-.01-.01-.02-.015-.035-.02l-.005-.005c-.015-.01-.03-.015-.045-.02h-.005c-.015-.005-.025-.01-.04-.01-.005 0-.005 0-.01-.005-.015-.005-.03-.005-.045-.01h-.06c-.015 0-.025 0-.04.005h-.005c-.015.005-.03.005-.045.01h-.005L1.31 6.65c-.155.05-.265.2-.26.365 0 .165.11.31.27.36l8.3 2.605 2.605 8.3c.05.16.195.265.36.27h.005c.165 0 .31-.105.365-.26L18.53 1.555V1.55c.005-.015.01-.03.01-.045.005-.005.005-.005.005-.01zm-1.795.81l-6.935 6.94L2.675 7 16.75 2.305zm-4.15 14.62l-2.245-7.14L17.29 2.85 12.6 16.925z"/>
</svg>
