<svg width="38" height="28" viewBox="0 0 38 28" fill="none" xmlns="http://www.w3.org/2000/svg">
<path d="M27.6156 21.9643C22.4215 21.9643 20.2895 18.5848 12.7592 18.5848C5.22897 18.5848 0.51123 22.8489 0.51123 22.8489C0.51123 22.8489 5.22897 27.113 12.7592 27.113C20.2895 27.113 22.4442 23.7335 27.6156 23.7335C32.7869 23.7335 37.0057 27.3172 37.0057 27.3172V18.3807C37.0057 18.3807 32.8096 21.9643 27.6156 21.9643Z" fill="#3DBCED"/>
<path d="M0.51123 9.44403V18.3805C0.51123 18.3805 4.7073 14.7969 9.90135 14.7969C15.0727 14.7969 17.2275 18.1764 24.7577 18.1764C32.2879 18.1764 37.0057 13.9123 37.0057 13.9123C37.0057 13.9123 32.2879 9.64816 24.7577 9.64816C17.2275 9.64816 15.0727 13.0277 9.90135 13.0277C4.7073 13.0277 0.51123 9.44403 0.51123 9.44403Z" fill="#3DBCED"/>
<path d="M27.6156 4.0913C22.4442 4.0913 20.2895 0.711763 12.7592 0.711763C5.22897 0.711763 0.51123 4.97587 0.51123 4.97587C0.51123 4.97587 5.22897 9.23999 12.7592 9.23999C20.2895 9.23999 22.4442 5.86045 27.6156 5.86045C32.7869 5.86045 37.0057 9.44412 37.0057 9.44412V0.507629C37.0057 0.507629 32.8096 4.0913 27.6156 4.0913Z" fill="#3DBCED"/>
</svg>
