<svg xmlns="http://www.w3.org/2000/svg" xmlns:xlink="http://www.w3.org/1999/xlink" width="261" height="144" viewBox="0 0 261 144">
    <defs>
        <path id="qfdacy4fla" d="M0 0.107L261.012 0.107 261.012 76.647 0 76.647z"/>
    </defs>
    <g fill="none" fill-rule="evenodd">
        <path fill="#DADEEA" fill-opacity=".503" d="M47.694 97.159c2.337 9.315 5.98 16.154 10.655 21.207 4.674-.069 9.692-.137 14.848-.137 26.57 0 48.086 1.306 48.086 2.921 0 1.581-21.517 2.887-48.086 2.887-2.75 0-5.43 0-8.043-.034 17.976 11.411 46.023 6.874 76.82 6.874 4.537 0 9.108.103 13.714.172-6.462-.481-10.311-1.134-10.311-1.787 0-1.616 21.516-2.922 48.05-2.922 8.043 0 15.605.138 22.273.344 2.372-.86 4.572-1.856 6.6-3.06-5.534.138-11.618.207-17.977.207-26.534 0-48.05-1.272-48.05-2.887 0-1.616 21.516-2.922 48.05-2.922 9.006 0 17.392.172 24.61.413 4.64-4.984 7.321-11.858 7.321-21.276 1.031-34.371-16.704-66.577-46.298-84.038-29.594-17.495-66.37-17.495-95.964 0-29.594 17.461-47.33 49.667-46.298 84.038"/>
        <g transform="translate(0 46.703)">
            <mask id="fyj8l79nqb" fill="#fff">
                <use xlink:href="#qfdacy4fla"/>
            </mask>
            <path fill="#3C4162" d="M101.691 8.936c.206 1.925-2.028 2.887-6.634 2.853 3.781-.344 5.98-1.272 6.634-2.853zm5.534 17.46s2.234 3.06 2.406 3.54c-.207-.893-1.031-2.199-1.41-2.68.688-.31.585-.275.79-1.444.482-.618 1.1-.893 1.857-.79-.619-.275-1.272-.172-1.925.275.069-.585.069-.894.069-.894-.584.79-1.203 1.444-1.787 1.993zm-21.689 37.74c4.331 0 7.837.206 7.837.447 0 .24-3.506.447-7.837.447-4.365 0-7.87-.206-7.87-.447 0-.24 3.505-.447 7.87-.447zM26.9 61.524c4.331 0 7.837.206 7.837.447 0 .24-3.506.412-7.837.412-4.365 0-7.87-.172-7.87-.412s3.505-.447 7.87-.447zM213.707 44.51c-.138.206-.413.206-.55.069 0 .206.103.378.275.481.481.31 1.168-.653.687-.962-.137-.103-.378-.103-.584-.069.206 0 .31.275.172.481zm3.643 8.937c-2.612-1.031-4.434-1.34-7.39-3.781 1.581 1.203 3.06 1.787 4.468 1.753.825.687 1.788 1.443 2.922 2.028zm9.624-7.871c-.722.034-1.925.962-2.681 1.34.344.31.516.481.516.481.343-.378 1.134-1.615 2.165-1.821zm.034.962c-.824-.069-1.34.997-1.856 1.272l.344.343c.24-.274.756-1.34 1.512-1.615zm.103 1.1c-.653-.034-.962.584-1.271.86l.309.308c.206-.24.378-.962.962-1.168zm16.877 12.545c1.03.035 1.856.31 1.856.585 0 .275-.825.447-1.856.378-1.032-.035-1.89-.31-1.89-.585 0-.274.858-.446 1.89-.378zm-122.946 6.462c32.343 0 58.568.688 58.568 1.513s-26.225 1.478-58.568 1.478c-32.378 0-58.603-.653-58.603-1.478s26.225-1.513 58.603-1.513zm98.714-12.648c-.069-.172-.103-.344-.137-.516.068.172.137.344.171.481l-.034.035zm-3.06.034l.448.103c.172.069.378.103.55.172 0 0 0 .034.034.069-1.134.24-1.89.343-1.89.24 0-.309.309-.446.859-.584zm-7.354-8.387c.274.138.584.275.928.413-.344-1.066-1.238-1.787-1.341-2.887-.069-.619.481-1.031 2.097-.516 3.643-.928 8.077.447 12.133 3.334.756.516 2.337-.687 2.337-.687.584-.413 1.272-.688 1.994-.619h.137l-.034.138c-.07.171-.103.343-.172.515l.31.138-.379.309c-.034.172-.069.344-.069.515l.31.104-.31.378c0 .206 0 .447.035.653l.24.069-.206.274c.034.31.069.62.138.894v.034c.171.722.378 1.478.584 2.235.31 1.065.515 2.028.653 2.887.412-.481 2.371-.963.172-1.581 3.024-1.135 3.093 1.959 5.156 1.58 4.055-.721 7.664 1.582 10.62 1.685 5.43-.069 16.739-.653 16.327.412-.413.997-12.443 2.2-16.67 2.303-.86 0-1.65.035-2.372.069-2.063.206-4.606.378-7.527.55-1.032.275-.035.653 3.024 1.1.962.137 7.63 1.512-3.059 2.097-4.674.103-11.686.893-14.058 1.168-3.815.447-3.78-.412-2.44-1.168-.619.034-1.306.034-1.994.034-.653 0-1.306 0-1.89-.034.447.137.722.275.722.446 0 .275-.825.447-1.856.413-1.031-.069-1.89-.344-1.89-.619 0-.103.205-.206.48-.275-2.062-.103-3.402-.24-3.402-.378 0-.24 3.506-.447 7.836-.447 1.72 0 3.3.035 4.572.103.034-.034.068-.034.068-.034 3.06-.344 6.497-1.306-3.093-.653-2.647.172-5.327-.413-10.07.206-3.54.138-5.122-.481-4.881-1.134-32.275.619-36.915 1.134-13.852 1.615 4.022.069 31.862.997-12.924 1.994-19.522.31-48.944 1.34-58.912 1.684-23.853.86-11.892-1.306.894-1.753 12.717-.412 27.256-1.443-12.992-.447-11.034.275-22.376-.137-42.208.653-27.532.516-27.085-1.615-.378-1.993 32.309-1.169 29.903-2.097-2.51-1.512-71.285.721-78.16.171-23.234-1.925-3.3-.172-6.187-.344-8.49-.585-.997-.103-7.252-5.602 4.228-10.208 6.77-2.715 32.446-6.05 42.207-7.287l.791.653-.413-12.614c.172-1.272.929-1.89 2.097-2.028l10.862 2.097c1.374.275 1.58.412 1.924 1.959.172.86.31 2.131.413 3.953.171-1.856.24-3.334.206-4.365-.069-1.96-.103-1.925-1.89-2.269l-6.565-1.237c-.275-1.89.824-5.053 3.506-6.943-.894 1.615-.826 2.921-.688 4.95.722-4.606 2.337-8.56 5.809-8.319.584-.756.962-1.202 1.168-1.374-8.283-.894-4.124-4.331-.55-5.19.825-2.303.757-4.4 3.231-4.881.997-.206 1.685-.31 3.162-.138-.721 0-.859 1.17-3.127 1.41 2.2.171 3.024-1.65 4.64-.791 1.237.688 1.89 2.2 1.993 4.503.069-.997.104-1.41.104-1.272 6.977.86 5.774 4.606-.172 5.946-.413 1.581-.997 2.853-2.613 2.853-1.546 0 1.822 2.475 2.716 3.059 1.134.584 3.746 2.337 5.396 5.534l3.747-4.744-.688-.48c-.137-.585-.034-1.135.24-1.547.31-.413.791-.653 1.341-.653l.825.618C133.176-4.09 146.58-3.163 152.492 6.805c.378.619.79 1.203 1.168 1.787 8.421 13.027 14.436 22.341 37.602 13.233 4.194-1.34 8.421-1.169 11.858.172 1.685.653 3.197 1.615 4.4 2.784 1.203 1.169 2.13 2.612 2.612 4.228.722 2.268.653 4.915-.481 7.836-.963 2.475-1.375 4.434-1.306 5.98.069 1.135.412 2.063.997 2.82zm-49.976 10.484c12.167-.104 23.303-.207 33.374-.275 1.031-.482 5.465-1.135 13.164-2.062 2.51 0 5.465 1.1 6.565-.929.103-.206.24-.309.378-.378-1.58-.825-2.99-1.856-4.261-3.059-.654-1.03-1.066-2.165-1.272-3.506-.035-.206.068-.412.515-.584.344-.137.825.034 1.34.24-.515-.721-.824-1.65-.893-2.75-.069-1.546.344-3.54 1.306-6.014 1.134-2.887 1.203-5.534.481-7.802-.515-1.581-1.409-2.99-2.612-4.16-1.169-1.168-2.681-2.13-4.365-2.783-3.403-1.306-7.596-1.478-11.79-.172-23.234 9.143-29.284-.206-37.705-13.233-.515-.79-.996-1.581-1.546-2.372-7.734-10.483-22.65-5.327-39.287 12.958.447.344.997.997.928 1.478l.207.275.893-1.753c.757.344 1.513.722 2.234 1.1.104.103.172.275.138.413-.034.103-.138.206-.275.24l-2.131-1.203-.653 1.41c.515.618.447.79-.24.515-.31 0-.516-.069-.62-.172-.137-.069-.274-.172-.343-.309-.069-.138-.069-.275-.034-.378-.172.137-.207.412-.07.79-.206.069-.377.103-.584.035-.446-.241-.653-.55-.687-.963-.137.447.069.86.619 1.203.446.344.55.757.24 1.306.206.516 0 1.135-.584 1.925.24-.859.31-1.478.206-1.856-.137.79-.309 1.444-.584 1.925.447.137.722.344.79.619l.207 2.2c.137 1.684 0 2.852.309 4.57.069 2.544-2.406 3.37-4.674 2.579-1.066-.378-2.131-.86-2.75-1.547-3.094-3.643-4.95-5.74-5.293-3.334-.138.55-.275 1.203-.413 1.925-.55 2.509 4.606 4.915 4.743 4.915 5.397-.104 9.143.206 11.309.653 7.183 2.475-23.064 5.774-35.54 7.355 5.19.172 53.344-3.162 38.461-7.458 2.75-.207 47.295-1.89 58.569-2.613.721-.034 5.67-.137 3.506 1.272-1.341.86-5.362 1.787-8.8 2.303-19.626 2.853-71.698 8.765-81.94 10.518 12.545-1.272 86.993-7.253 92.596-11.652.275 7.836-18.011 15.673-23.132 18.595zm59.84-6.875c.034-.24-.069-.652-.31-.996-.446 1.375-2.061 1.924-2.268 1.65.516-.997.894-2.028.722-2.99 3.678.927 7.08 3.986 8.386 5.774-2.474-5.087-7.527-7.012-9.176-7.287.618 2.956-.997 5.19-4.434 4.296 2.44-.24 3.815-1.306 3.643-2.784-1.513 1.444-3.025 2.063-4.572 1.512-1.306-.687-2.13-1.477-2.99-2.165-.618-.275-.481-.79.344-.206.928.619 1.753 1.272 2.818 1.34.103-1.924-.309-3.3-1.237-4.09-.103-.103-.31-.206-.447-.24-.31-.035-.172.343.035.721.446.825.721 1.513.859 2.303-.619-1.546-1.96-2.921-1.169-3.334.447-.24.997.103 1.41.619.584.722.928 1.822.962 3.334.24-1.41.103-2.475-.378-3.197.756 0 1.581.86 1.787 1.994.825-.034 1.34-.516 1.375-1.34.412-.07 1.03.309 1.306.55-.412-.757-1.856-1.444-3.059-.585-.206-.55-.412-.825-1.1-1.134 5.053-1.306 15.227 4.296 16.567 11.273-.034 0-.069.035-.069.035-.275-.997-.79-1.96-1.375-2.715.482.928.86 1.89 1.135 2.887-.653.378-1.478.653-2.028.722-.103-.207-.24-.447-.344-.653.894-.929.31-1.238-.928-1.238-1.375-1.684-3.368-3.059-5.465-4.056zM117.02 70.976c7.356 0 13.302.447 13.302 1.031 0 .584-5.946 1.066-13.302 1.066-7.355 0-13.301-.482-13.301-1.066 0-.584 5.946-1.031 13.301-1.031zm-13.885 3.575c6.77.034 12.064.48 12.064 1.03 0 .585-5.946 1.066-13.268 1.066-7.355 0-13.301-.481-13.301-1.065 0-.447 2.612-.481-.31-.481-10.448 0-18.904-.653-18.904-1.478s8.696-.516 19.145-.516c10.483 0 18.698-.069 18.698.516 0 .584-1.547.653-4.124.928zm8.798-44.992l.275 2.337c.035 1.787-.343.069-.275-2.337z" mask="url(#fyj8l79nqb)"/>
        </g>
        <path fill="#DADEEA" fill-opacity=".504" d="M93.889 130.877c26.5 0 48.085-1.306 48.085-2.887 0-1.616-21.585-2.922-48.085-2.922-26.466 0-48.051 1.306-48.051 2.922 0 1.581 21.585 2.887 48.05 2.887M143.005 138.989c26.5 0 48.085-1.306 48.085-2.887 0-1.616-21.585-2.922-48.085-2.922-26.466 0-48.05 1.306-48.05 2.922 0 1.58 21.584 2.887 48.05 2.887M195.49 128.265c26.466 0 48.05-1.306 48.05-2.887 0-1.616-21.584-2.922-48.05-2.922-26.5 0-48.085 1.306-48.085 2.922 0 1.58 21.585 2.887 48.085 2.887M92.823 143.422c13.817 0 25.057-.687 25.057-1.512s-11.24-1.512-25.057-1.512c-13.783 0-25.056.687-25.056 1.512s11.273 1.512 25.056 1.512M205.767 143.216c13.68 0 24.816-.687 24.816-1.512s-11.136-1.512-24.816-1.512c-13.645 0-24.782.687-24.782 1.512s11.137 1.512 24.782 1.512"/>
        <path fill="#DADEEA" fill-opacity=".504" d="M164.728 131.633c17.77 0 32.274-.894 32.274-1.959 0-1.066-14.504-1.96-32.274-1.96-17.77 0-32.275.894-32.275 1.96 0 1.065 14.505 1.96 32.275 1.96"/>
        <path fill="#3C4162" d="M102.035 130.155c22.238 0 40.386-.584 40.386-1.237 0-.688-18.148-1.238-40.386-1.238-22.239 0-40.387.55-40.387 1.238 0 .653 18.148 1.237 40.387 1.237M143.28 137.201c22.238 0 40.386-.687 40.386-1.512 0-.79-18.148-1.478-40.386-1.478-22.238 0-40.386.687-40.386 1.478 0 .825 18.148 1.512 40.386 1.512M187.344 127.956c22.238 0 40.386-.55 40.386-1.238 0-.687-18.148-1.272-40.386-1.272-22.238 0-40.386.585-40.386 1.272 0 .688 18.148 1.238 40.386 1.238M101.141 141.876c11.583 0 21.035-.585 21.035-1.272 0-.722-9.452-1.272-21.035-1.272-11.617 0-21.07.55-21.07 1.272 0 .687 9.453 1.272 21.07 1.272M196.006 141.67c11.48 0 20.828-.55 20.828-1.238 0-.687-9.349-1.271-20.828-1.271-11.48 0-20.83.584-20.83 1.271 0 .688 9.35 1.238 20.83 1.238M154.141 122.181c14.917 0 27.085-.756 27.085-1.65 0-.893-12.168-1.65-27.085-1.65-14.951 0-27.119.757-27.119 1.65 0 .894 12.168 1.65 27.12 1.65"/>
    </g>
</svg>
