<svg width="200" height="200" viewBox="0 0 200 200" fill="none" xmlns="http://www.w3.org/2000/svg">
<mask id="mask0" mask-type="alpha" maskUnits="userSpaceOnUse" x="0" y="0" width="200" height="200">
<path d="M200 100C200 155.228 155.228 200 100 200C44.7715 200 0 155.228 0 100C0 44.7715 44.7715 0 100 0C155.228 0 200 44.7715 200 100Z" fill="#C4C4C4"/>
</mask>
<g mask="url(#mask0)">
<rect x="-41" y="-21" width="426" height="346" fill="#D7EFF6"/>
<path d="M99.6091 185.928C147.994 185.928 187.218 182.417 187.218 178.086C187.218 173.755 147.994 170.244 99.6091 170.244C51.2239 170.244 12 173.755 12 178.086C12 182.417 51.2239 185.928 99.6091 185.928Z" fill="#90CEF0"/>
<path d="M107.836 168.385L107.408 167.914C111.853 163.983 120.528 161.269 133.157 159.859C135.443 159.602 137.666 159.303 139.781 158.94L139.888 159.581C137.772 159.923 135.529 160.243 133.242 160.5C120.742 161.889 112.195 164.56 107.836 168.385Z" fill="#D1D1DF"/>
<path d="M164.782 151.29L164.461 150.735C176.043 143.769 178.82 134.431 179.098 127.828C179.397 120.67 176.94 115.093 176.919 115.028L177.496 114.772C177.517 114.836 180.038 120.541 179.739 127.871C179.568 132.166 178.457 136.183 176.449 139.794C173.906 144.26 169.995 148.149 164.782 151.29Z" fill="#D1D1DF"/>
<path d="M161.256 103.768L174.141 113.298L170.829 121.311L161.256 103.768Z" fill="#1D94B7"/>
<path d="M161.256 103.768L174.141 113.298L180.829 107.763L161.256 103.768Z" fill="#2149AB"/>
<path d="M126.319 201.526C126.255 201.484 120.892 198.108 115.464 193.321C108.156 186.868 104.246 181.099 103.84 176.141C103.584 173 104.78 170.222 107.408 167.893L107.836 168.363C105.357 170.543 104.246 173.15 104.481 176.077C105.421 187.509 126.447 200.821 126.661 200.971L126.319 201.526Z" fill="#D1D1DF"/>
<path d="M62.8106 73.0259C65.1197 67.8144 62.7668 61.7177 57.5553 59.4086C52.3438 57.0996 46.2471 59.4525 43.938 64.664C41.629 69.8755 43.9819 75.9721 49.1934 78.2812C54.4049 80.5903 60.5015 78.2374 62.8106 73.0259Z" fill="white"/>
<path d="M56.2535 71.2244C57.5686 69.6321 57.3439 67.2751 55.7516 65.96C54.1593 64.6449 51.8024 64.8696 50.4873 66.4618C49.1721 68.0541 49.3968 70.4111 50.9891 71.7262C52.5814 73.0413 54.9383 72.8166 56.2535 71.2244Z" fill="#ECBD5C"/>
<path d="M45.8043 78.0408C45.2915 78.9169 44.8 79.8143 44.3513 80.7332C45.1846 81.3742 46.0821 81.9084 47.0437 82.3572C47.642 81.5238 48.2189 80.6904 48.7531 79.8144C49.501 80.1349 50.2916 80.3699 51.0822 80.5195L51.5523 78.1476C50.4626 77.934 49.4155 77.528 48.4753 76.9724C47.5351 76.3955 46.6804 75.6689 45.9966 74.7929L44.1162 76.31C44.6077 76.951 45.1846 77.528 45.8043 78.0408Z" fill="#002961"/>
<path d="M41.659 71.0321C40.6974 71.374 39.7572 71.7586 38.817 72.1646C39.0521 73.1903 39.394 74.1732 39.8427 75.1348C40.8256 74.8997 41.8085 74.6006 42.7701 74.28C43.1334 75.0066 43.5821 75.6903 44.0949 76.31L45.9753 74.7929C44.5864 73.0621 43.8171 70.8611 43.8812 68.6602L41.4667 68.6175C41.4453 69.4295 41.5094 70.2415 41.659 71.0321Z" fill="#002961"/>
<path d="M42.9838 62.9977C42.0222 62.6344 41.0607 62.3139 40.0777 62.0361C39.6076 62.9763 39.223 63.9592 38.9452 64.9635C39.864 65.4123 40.8042 65.8183 41.7444 66.2029C41.5735 66.9935 41.4667 67.8055 41.4453 68.6175L43.8599 68.6602C43.8812 68.1046 43.924 67.5491 44.0308 67.0149C44.1377 66.4807 44.2872 65.9465 44.5009 65.4123C44.8855 64.3866 45.4625 63.425 46.2104 62.5917L44.3941 61.0104C43.8599 61.6301 43.3898 62.2925 42.9838 62.9977Z" fill="#002961"/>
<path d="M49.1806 57.6985C48.6891 56.8224 48.1549 55.9463 47.578 55.0916C46.6164 55.4975 45.6976 56.0104 44.8429 56.6087C45.2489 57.5489 45.6976 58.4463 46.189 59.3438C45.548 59.8353 44.9497 60.3908 44.4155 61.0105L46.2318 62.5917C46.9583 61.7584 47.8344 61.0533 48.796 60.519C49.7575 59.9848 50.8259 59.6216 51.9157 59.4506L51.5524 57.0788C50.7191 57.207 49.9285 57.4207 49.1806 57.6985Z" fill="#002961"/>
<path d="M57.3218 57.6129C57.5141 56.6086 57.6423 55.6043 57.7705 54.5787C56.7662 54.2795 55.7405 54.0658 54.6935 53.9804C54.4157 54.9633 54.1593 55.9462 53.967 56.9505C53.155 56.9078 52.343 56.9505 51.531 57.0787L51.8943 59.4506C52.984 59.2797 54.0952 59.301 55.1849 59.5147C56.2747 59.7284 57.3218 60.1344 58.2619 60.6899L59.5013 58.6386C58.8175 58.2326 58.0696 57.8907 57.3218 57.6129Z" fill="#002961"/>
<path d="M63.604 62.784C64.3946 62.1429 65.1425 61.4592 65.8904 60.754C65.3134 59.8779 64.6724 59.0659 63.9245 58.318C63.0698 58.895 62.2578 59.4933 61.4458 60.113C60.8475 59.5574 60.2065 59.0659 59.5013 58.6599L58.262 60.7113C59.2022 61.2882 60.0569 62.0147 60.7407 62.8908C61.4458 63.7455 61.98 64.7285 62.3433 65.7755L64.6297 64.9849C64.3519 64.2156 64.01 63.4891 63.604 62.784Z" fill="#002961"/>
<path d="M65.0997 70.7757C66.1254 70.7757 67.1297 70.7543 68.1554 70.6902C68.2836 69.6431 68.3049 68.5961 68.2195 67.5491C67.1938 67.4422 66.1895 67.3781 65.1638 67.3354C65.057 66.5234 64.886 65.7328 64.6083 64.9635L62.3219 65.7542C62.6851 66.8012 62.8561 67.9123 62.8347 69.0021C62.8133 69.5577 62.7706 70.1132 62.6638 70.6474C62.5569 71.1817 62.4073 71.7159 62.1937 72.2501L64.4373 73.1048C64.7578 72.3783 64.9715 71.5876 65.0997 70.7757Z" fill="#002961"/>
<path d="M61.1039 77.8699C61.8731 78.5323 62.6851 79.1734 63.4971 79.7717C64.2664 79.0665 64.9501 78.2759 65.5484 77.4212C64.8433 76.6947 64.1168 75.9682 63.3475 75.3057C63.7963 74.622 64.1595 73.8955 64.4373 73.1476L62.1937 72.2928C61.4244 74.3656 59.8645 76.1177 57.92 77.1861L59.0953 79.3016C59.8218 78.8742 60.4842 78.4041 61.1039 77.8699Z" fill="#002961"/>
<path d="M53.4969 80.7545C53.6678 81.7588 53.8601 82.7418 54.1165 83.7461C55.1636 83.7033 56.2106 83.5324 57.2149 83.2546C57.1508 82.2289 57.044 81.2246 56.8944 80.2203C57.6636 79.9853 58.4115 79.6648 59.138 79.2588L57.9628 77.1433C57.0012 77.6775 55.9328 78.0408 54.8431 78.2117C53.7533 78.3827 52.6421 78.3613 51.5524 78.1476L51.0823 80.5195C51.8729 80.6904 52.6849 80.7545 53.4969 80.7545Z" fill="#002961"/>
<path d="M124.374 6.59721e-06L123.306 0.0121307L123.811 44.5174L124.879 44.5053L124.374 6.59721e-06Z" fill="#1D94B7"/>
<path d="M148.029 0.00457764L126.512 50.8179L127.494 51.2239L149.183 0.00457764H148.029Z" fill="#1D94B7"/>
<path d="M121.896 40.7748C121.704 40.4971 121.575 40.1979 121.511 39.8987C121.447 39.5782 121.255 39.3004 120.956 39.1295C120.593 38.9158 120.272 38.6167 120.058 38.1893C119.61 37.3132 119.802 36.1807 120.55 35.5183C121.554 34.5995 123.114 34.7918 123.883 35.8602C124.076 36.138 124.204 36.4371 124.268 36.7363C124.332 37.0568 124.524 37.3346 124.823 37.5055C125.101 37.6551 125.336 37.8688 125.529 38.1466C125.806 38.5312 125.956 39.0013 125.956 39.45C125.956 39.6851 126.084 39.9201 126.276 40.0697C126.49 40.2406 126.682 40.4543 126.811 40.7321C127.131 41.3945 127.003 42.2065 126.512 42.7407C125.7 43.5954 124.375 43.4672 123.712 42.5698C123.605 42.4202 123.52 42.2492 123.456 42.0783C123.37 41.8432 123.199 41.6509 122.964 41.5868C122.558 41.4586 122.174 41.1808 121.896 40.7748Z" fill="#2149AB"/>
<path d="M105.763 54.3009C105.763 54.3009 104.737 53.6812 103.84 53.6598C103.477 53.6598 103.135 53.7239 102.857 53.9804L101.981 54.771C101.917 54.8137 101.96 54.9206 102.024 54.9206L103.37 54.7069C103.519 54.6855 103.648 54.7496 103.712 54.8778C103.883 55.1556 104.16 55.3265 104.481 55.3265L105.592 55.5189L105.763 54.3009Z" fill="#FDDEA2"/>
<path d="M105.571 55.5402L116.511 60.2198L122.964 50.6255L118.969 47.9331L113.904 55.4761L105.742 54.2795L105.571 55.5402Z" fill="#FDDEA2"/>
<path d="M138.178 64.9849L143.734 80.9896L160.85 86.1607L159.696 87.0795L141.661 83.4469C141.02 83.3187 140.443 82.8914 140.144 82.3144L134.781 71.6731L133.798 72.1219L137.666 86.0966L145.465 103.362L144.14 103.982L134.503 87.5923L126.512 70.4338L138.178 64.9849Z" fill="#FDDEA2"/>
<path d="M138.178 64.9849L143.734 80.9896L155.743 84.6222L154.974 86.1393L141.661 83.4683C141.02 83.3401 140.443 82.9127 140.144 82.3358L134.781 71.6945L133.798 72.1432L137.666 86.1179L143.585 99.2166L141.811 100.05L134.482 87.5923L126.49 70.4338L138.178 64.9849Z" fill="#2149AB"/>
<path d="M142.345 106.652L143.584 106.075L145.123 104.644L144.14 104.003L142.195 106.353L142.345 106.652Z" fill="#FF5B5F"/>
<path d="M145.208 105.306L146.17 104.857L145.465 103.383L144.14 104.003L145.123 104.644L145.208 105.306Z" fill="#FF5B5F"/>
<path d="M158.585 90.0928L159.653 89.238L160.807 87.4859L159.696 87.1012L158.371 89.8364L158.585 90.0928Z" fill="#FF5B5F"/>
<path d="M161.063 88.1056L161.875 87.4645L160.85 86.1825L159.696 87.1013L160.807 87.4859L161.063 88.1056Z" fill="#FF5B5F"/>
<path d="M127.665 76.5236L144.14 72.9765L128.926 46.9075C127.879 45.0057 125.529 44.2365 123.563 45.1553L120.357 46.6511C118.669 47.4417 117.879 49.4076 118.541 51.1597L127.665 76.5236Z" fill="#FFA730"/>
<path d="M120.55 43.51L122.494 42.698C122.964 42.5057 123.199 41.9501 123.007 41.48L121.276 37.3133L116.917 39.1082L118.349 42.5912C118.733 43.4459 119.695 43.8519 120.55 43.51Z" fill="#FDDEA2"/>
<path d="M122.922 39.856C121.64 40.1979 120.315 39.4073 119.973 38.1252L119.524 36.373L119.909 36.2662C120.977 35.9884 122.088 36.6294 122.366 37.7192L122.922 39.856Z" fill="#2149AB"/>
<path d="M116.725 39.4927L119.054 38.8944C119.845 38.7021 120.229 37.826 119.887 37.0995L119.545 36.3944L118.37 36.6935C117.131 36.9927 116.404 38.2534 116.725 39.4927Z" fill="#2149AB"/>
<path d="M121.597 39.8988C121.682 40.1338 121.939 40.2407 122.174 40.1338C122.409 40.0483 122.516 39.7919 122.409 39.5569C122.323 39.3218 122.067 39.215 121.832 39.3218C121.597 39.4073 121.49 39.6637 121.597 39.8988Z" fill="#FDDEA2"/>
<path d="M85.8694 63.5319L113.562 66.8226C110.849 59.6001 107.002 52.6555 101.96 46.2665C95.5705 51.288 90.2071 57.1214 85.8694 63.5319Z" fill="#FC8D15"/>
<path d="M115.528 65.2413C115.528 65.2413 114.31 65.1772 113.541 65.5832C113.22 65.7542 112.943 65.9892 112.814 66.3311L112.408 67.4636C112.387 67.5277 112.451 67.6132 112.515 67.5704L113.584 66.7371C113.691 66.6516 113.84 66.6516 113.968 66.7157C114.246 66.8867 114.588 66.8867 114.844 66.7371L115.913 66.3952L115.528 65.2413Z" fill="#FDDEA2"/>
<path d="M119.503 40.8604L121.533 40.3262L124.311 44.9844C124.353 45.0485 124.353 45.1554 124.289 45.2195L121.96 47.6127C121.704 47.8691 121.276 47.805 121.105 47.4845L119.503 40.8604Z" fill="#FDDEA2"/>
<path d="M126.106 55.3475C125.999 55.3475 125.892 55.3261 125.807 55.262C121.832 52.5483 123.734 44.7275 123.819 44.407C123.884 44.1292 124.183 43.9369 124.46 44.0224C124.738 44.0865 124.931 44.3857 124.845 44.6634C124.824 44.7275 123.05 52.0995 126.405 54.3859C126.64 54.5569 126.704 54.8774 126.555 55.1338C126.448 55.262 126.277 55.3475 126.106 55.3475Z" fill="#002961"/>
<path d="M119.311 53.6381C119.076 53.6381 118.862 53.4885 118.798 53.2535C118.712 52.9757 118.862 52.6765 119.161 52.591L123.969 51.0953C124.247 51.0098 124.546 51.1594 124.631 51.4585C124.717 51.7363 124.567 52.0355 124.268 52.1209L119.46 53.6167C119.418 53.6167 119.353 53.6381 119.311 53.6381Z" fill="#002961"/>
<path d="M120.913 46.6721L120.614 45.4541C120.55 45.4754 120.507 45.5182 120.465 45.5609C120.422 45.6036 115.892 50.2405 120.315 55.9458C119.952 54.5569 119.695 52.8688 119.567 52.0568C119.012 49.4499 120.294 47.4627 120.913 46.6721Z" fill="#002961"/>
<path d="M115.891 66.4379L128.007 62.5489C129.247 62.1429 130.037 60.9463 129.93 59.6429L127.836 48.5742L124.567 46.2451L125.4 59.0873L115.528 65.2413L115.891 66.4379Z" fill="#FDDEA2"/>
<path d="M112.43 160.735H87.0443V161.804H112.43V160.735Z" fill="#1D94B7"/>
<path d="M87.5571 142.658H111.639C124.887 120.008 125.507 92.0368 113.541 68.8738H85.6554C73.6892 92.0368 74.3303 120.008 87.5571 142.658Z" fill="#77C6EA"/>
<path d="M99.6086 106.653C106.052 106.653 111.276 101.429 111.276 94.9856C111.276 88.5421 106.052 83.3186 99.6086 83.3186C93.1651 83.3186 87.9417 88.5421 87.9417 94.9856C87.9417 101.429 93.1651 106.653 99.6086 106.653Z" fill="white"/>
<path d="M87.5785 142.658L79.9073 151.29L73.0695 133.256C72.0439 130.563 72.5994 127.508 74.5226 125.35L78.8817 120.435L87.5785 142.658Z" fill="#FFA730"/>
<path d="M111.639 142.658L119.289 151.29L126.126 133.256C127.152 130.563 126.597 127.508 124.673 125.35L120.314 120.435L111.639 142.658Z" fill="#FFA730"/>
<path d="M99.6087 103.405C104.258 103.405 108.028 99.6352 108.028 94.9855C108.028 90.3358 104.258 86.5665 99.6087 86.5665C94.959 86.5665 91.1897 90.3358 91.1897 94.9855C91.1897 99.6352 94.959 103.405 99.6087 103.405Z" fill="#2149AB"/>
<path d="M107.921 142.658H91.3179V146.376H107.921V142.658Z" fill="#002961"/>
<path d="M101.938 142.658L99.6087 151.29L97.2796 142.658V122.55C97.2796 121.268 98.3266 120.221 99.6087 120.221C100.891 120.221 101.938 121.268 101.938 122.55V142.658Z" fill="#FFA730"/>
<path d="M91.3971 145.79L81.669 176.42L82.6873 176.743L92.4153 146.113L91.3971 145.79Z" fill="#002961"/>
<path d="M107.835 145.774L106.817 146.098L116.545 176.728L117.563 176.405L107.835 145.774Z" fill="#002961"/>
<path d="M65.8475 162.509H25.6542V166.569H65.8475V162.509Z" fill="#002961"/>
<path d="M46.2747 179.988L32.1291 172.488L46.467 164.475L60.6341 171.975L46.2747 179.988ZM34.3513 172.466L46.2534 178.77L58.3691 171.996L46.467 165.693L34.3513 172.466Z" fill="#002961"/>
<path d="M46.0611 194.283L31.9154 186.783L46.2534 178.77L60.4204 186.27L46.0611 194.283ZM34.1377 186.762L46.0397 193.065L58.1554 186.292L46.2534 179.988L34.1377 186.762Z" fill="#002961"/>
<path d="M45.8688 208.578L31.7017 201.078L46.0397 193.065L60.2067 200.565L45.8688 208.578ZM33.9454 201.057L45.8474 207.361L57.9631 200.587L46.0611 194.283L33.9454 201.057Z" fill="#002961"/>
<path d="M44.0097 90.0279H46.7448V87.3355H43.3473V89.3655C43.3473 89.7288 43.6464 90.0279 44.0097 90.0279Z" fill="#FF5B5F"/>
<path d="M37.9197 114.879L38.9667 136.845L38.1547 160.521H39.9283L43.219 136.845L44.1592 120.499H46.3814L49.0524 137.743L44.8002 160.521H46.5737L53.1551 138.683C53.4115 138.149 53.5397 137.551 53.5397 136.952V114.879H37.9197Z" fill="#FFA730"/>
<path d="M49.9069 162.509H48.2402L46.5735 161.974V160.521L48.2402 161.333L49.9069 161.718V162.509Z" fill="#1D94B7"/>
<path d="M46.0609 162.509H44.8002V160.521H46.5738V161.974L46.0609 162.509Z" fill="#1D94B7"/>
<path d="M43.2192 162.509H41.5525L39.8857 161.974V160.521L41.5525 161.333L43.2192 161.718V162.509Z" fill="#1D94B7"/>
<path d="M39.3728 162.509H38.0907V160.521H39.8856V161.974L39.3728 162.509Z" fill="#1D94B7"/>
<path d="M64.0529 81.096L64.4375 79.7284C64.5657 79.237 64.5016 78.7241 64.2452 78.2968L63.4332 76.9506C63.3905 76.8651 63.2409 76.9079 63.2409 76.9933L63.2195 78.8951C63.2195 79.0874 63.1127 79.2797 62.9204 79.3652C62.5144 79.5575 62.258 79.9421 62.1939 80.3909L62.1084 81.096H64.0529Z" fill="#FDDEA2"/>
<path d="M36.4026 74.4078L37.065 73.1471C37.3001 72.6984 37.7061 72.3778 38.1975 72.2496L39.7147 71.8436C39.8215 71.8223 39.8856 71.9291 39.8215 72.0146L38.5394 73.4035C38.4112 73.5531 38.3685 73.7454 38.4326 73.9377C38.5822 74.3437 38.5181 74.8138 38.2616 75.1771L37.8343 75.754L36.4026 74.4078Z" fill="#FDDEA2"/>
<path d="M36.5949 117.144H54.4586V100.007C54.4586 97.3357 52.3004 95.1776 49.6294 95.1776H41.4455C38.7745 95.1776 36.6163 97.3357 36.6163 100.007V117.144H36.5949Z" fill="#2149AB"/>
<path d="M46.8089 92.2074H45.2917C44.6293 92.2074 44.0738 91.6518 44.0738 90.9894V86.5235H48.9884V90.0279C48.9884 91.2245 48.0055 92.2074 46.8089 92.2074Z" fill="#FDDEA2"/>
<path d="M45.0567 90.8399L47.3644 90.3271L47.8773 95.2631L46.6807 97.8059L43.8601 95.2631L45.0567 90.8399Z" fill="#FDDEA2"/>
<path d="M38.6035 101.609L41.0822 95.1776L31.8726 88.4467L37.8129 75.7327L36.4026 74.3865L27.9622 87.186C27.2571 88.2757 27.3853 89.7287 28.2827 90.6689L38.6035 101.609Z" fill="#2149AB"/>
<path d="M64.2665 93.34L64.0529 81.1174H62.1084L60.463 92.1433L49.6935 95.3486L53.668 100.434L63.1127 95.2417C63.8178 94.8571 64.2452 94.1306 64.2665 93.34Z" fill="#2149AB"/>
<path d="M45.078 86.8868H47.4071C48.5824 86.8868 49.5439 85.9252 49.5439 84.75L45.1421 85.0064L45.078 86.8868Z" fill="#FF5B5F"/>
<path d="M45.9114 87.6987H48.8388C49.6936 87.6987 50.3773 87.015 50.3773 86.1602V85.5619H46.9798C46.3815 85.5619 45.89 86.0534 45.89 86.6517V87.6987H45.9114Z" fill="#FF5B5F"/>
<path d="M43.3472 87.6987H46.7448V85.0063H45.0139C44.0737 85.0063 43.3259 85.7542 43.3259 86.6944V87.6987H43.3472Z" fill="#FF5B5F"/>
<path d="M43.7532 89.109C43.7532 89.4082 44.0096 89.6646 44.3088 89.6646C44.608 89.6646 44.8644 89.4082 44.8644 89.109C44.8644 88.8099 44.608 88.5535 44.3088 88.5535C44.0096 88.5535 43.7532 88.8099 43.7532 89.109Z" fill="#FDDEA2"/>
<path d="M120.08 142.978C119.952 142.957 107.452 140.457 94.6093 136.098C77.2798 130.222 67.6001 123.961 65.8479 117.486C64.865 113.854 66.4035 110.2 70.442 106.631C77.0875 100.712 79.9722 96.5029 79.2671 93.7464C78.5192 90.7762 73.6259 89.4086 68.2411 88.1479L68.3907 87.5283C74.1815 88.8958 79.0534 90.2847 79.9081 93.5968C80.6773 96.6524 77.814 100.947 70.8908 107.123C67.0659 110.542 65.5701 113.961 66.4889 117.337C70.5702 132.337 119.738 142.273 120.23 142.359L120.08 142.978Z" fill="#D1D1DF"/>
<path d="M41.531 56.6514L40.9113 56.5018C43.4114 46.6939 51.6381 39.9843 58.0699 36.0953C65.0359 31.8858 71.489 29.9627 71.5531 29.9413L71.7241 30.561C71.66 30.5823 65.2709 32.4841 58.369 36.6509C52.0441 40.4758 43.9669 47.0571 41.531 56.6514Z" fill="#D1D1DF"/>
<path d="M85.8697 24.407L74.4805 29.0225L70.5702 23.6591L85.8697 24.407Z" fill="#1D94B7"/>
<path d="M85.8697 24.407L74.4805 29.0225L75.4207 35.6252L85.8697 24.407Z" fill="#2149AB"/>
<path d="M148.521 125.97C149.696 125.564 151 126.183 151.406 127.358L151.854 128.619L151.961 128.94C152.474 130.329 153.35 131.525 154.504 132.444L154.568 132.487L151.042 133.726L150.166 130.713L148.521 125.97Z" fill="#FF5B5F"/>
<path d="M133.435 150.906L132.409 151.633C132.046 151.889 131.811 152.274 131.768 152.722L131.598 154.09C131.576 154.175 131.704 154.218 131.747 154.154L132.794 152.872C132.901 152.744 133.072 152.68 133.243 152.722C133.627 152.808 134.012 152.701 134.29 152.423L134.739 151.996L133.435 150.906Z" fill="#FDDEA2"/>
<path d="M133.969 152.637L145.636 150.137L150.594 137.936L146.213 137.316L143.328 146.526L133.414 150.885L133.969 152.637Z" fill="#2149AB"/>
<path d="M150.615 169.86L155.594 170.714L154.333 180.629L157.667 201.271H155.765L150.102 180.287L150.615 169.86Z" fill="#FDDEA2"/>
<path d="M148.948 167.531L146.555 179.732L146 201.271H144.098L142.453 179.433L143.5 167.531H148.948Z" fill="#FDDEA2"/>
<path d="M142.431 158.663H158.457L161.427 172.616H139.354L142.431 158.663Z" fill="#002961"/>
<path d="M142.431 158.663H158.457L155.231 149.731C155.166 149.517 155.102 149.304 155.102 149.09L153.393 136.568C153.329 136.141 153.136 135.778 152.837 135.521C152.538 135.265 152.154 135.094 151.726 135.094L149.632 135.115V137.337H146.213L144.611 143.15C144.846 143.919 145.166 148.235 144.953 149.004L142.431 158.663Z" fill="#2149AB"/>
<path d="M149.632 137.316L151.705 135.094L148.286 135.115L146.213 137.316H149.632Z" fill="#FDDEA2"/>
<path d="M151.491 129.218C151.577 129.453 151.449 129.709 151.214 129.795C150.978 129.88 150.722 129.752 150.637 129.517C150.551 129.282 150.679 129.025 150.914 128.94C151.149 128.854 151.406 128.983 151.491 129.218Z" fill="#FDDEA2"/>
<path d="M149.077 129.73H150.914L151.705 135.094L148.286 135.115L149.077 129.73Z" fill="#FDDEA2"/>
<path d="M149.397 132.936L151 132.38C151.577 132.166 151.876 131.547 151.683 130.97L150.23 126.803L145.7 128.384L146.876 131.739C147.217 132.743 148.35 133.299 149.397 132.936Z" fill="#FDDEA2"/>
<path d="M148.286 129.068L151.598 127.914L151.235 126.846C150.914 125.948 149.931 125.457 149.012 125.777L144.824 127.252L144.888 127.423C145.38 128.833 146.897 129.559 148.286 129.068Z" fill="#FF5B5F"/>
<path d="M180.253 161.27H148.97V176.719H180.253V161.27Z" fill="#FFA730"/>
<path d="M177.175 172.552H152.047V173.663H177.175V172.552Z" fill="white"/>
<path d="M172.945 169.796H152.047V170.907H172.945V169.796Z" fill="white"/>
<path d="M177.175 167.039H152.047V168.15H177.175V167.039Z" fill="white"/>
<path d="M170.061 164.283H152.047V165.394H170.061V164.283Z" fill="white"/>
<path d="M163.265 160.436L161.791 160.992L157.56 148.598L148.136 139.474L153.008 135.713L159.91 144.667C160.744 145.735 161.278 146.996 161.491 148.342L163.265 160.436Z" fill="#2149AB"/>
<path d="M163.543 161.761L162.368 161.932C162.068 161.975 161.791 161.761 161.748 161.462L161.684 160.97C161.641 160.671 161.855 160.394 162.154 160.351L163.329 160.18C163.628 160.137 163.906 160.351 163.949 160.65L164.013 161.141C164.056 161.441 163.842 161.718 163.543 161.761Z" fill="#FDDEA2"/>
</g>
</svg>
